<mxfile host="app.diagrams.net" modified="2024-05-17T21:43:27.082Z" agent="Mozilla/5.0 (X11; Ubuntu; Linux x86_64; rv:125.0) Gecko/20100101 Firefox/125.0" etag="aTuXZns6wpe9cmwYhf-s" version="24.2.2" type="google">
  <diagram name="Page-1" id="ySHZCcOIp_5Er4secyh7">
    <mxGraphModel grid="1" page="1" gridSize="5" guides="1" tooltips="1" connect="1" arrows="1" fold="1" pageScale="1" pageWidth="850" pageHeight="1100" math="0" shadow="0">
      <root>
        <mxCell id="0" />
        <mxCell id="1" parent="0" />
        <mxCell id="j2erakiJq77h1J_ViaSF-1" value="" style="rounded=0;whiteSpace=wrap;html=1;strokeWidth=2;textOpacity=50;opacity=60;" vertex="1" parent="1">
          <mxGeometry x="80" y="120" width="640" height="360" as="geometry" />
        </mxCell>
        <mxCell id="j2erakiJq77h1J_ViaSF-2" value="" style="shape=image;verticalLabelPosition=bottom;labelBackgroundColor=default;verticalAlign=top;aspect=fixed;imageAspect=0;image=data:image/png,iVBORw0KGgoAAAANSUhEUgAAAmUAAANdCAYAAADV0QtTAAAABHNCSVQICAgIfAhkiAAAABl0RVh0U29mdHdhcmUAZ25vbWUtc2NyZWVuc2hvdO8Dvz4AAAAudEVYdENyZWF0aW9uIFRpbWUARnJpIDE3IE1heSAyMDI0IDExOjAwOjIxIFBNIENFU1SjoJ+kAAAgAElEQVR4nOzdd3gU1f7H8c8QmiCoEQMqKtIE6QJSlSJNBUORjiAdpHgVsSuoP70IykVFlI50BS4dKVKkI3DpSi9RlCY9AYRkf38csiQhgSTsZmZ33q/nyUNmZjf57rA788k5Z85YHo/HIwAIYJYlcSQDEOisvpKnr91VAMAt8Uiy7C4CAG6JJYnGMgABjZYyAIHOsiyls7sIAAAAiFAGAADgBIQyAAAAByCUAQAAOAChDAAAwAHSPWp3BQAAAFC6+ZL055921wEAAOBq6VpKUq5cdtcBAADgakweCyDgMXksgEDH5LEAAAAOQSgDAABwAEIZAACAAxDKAAAAHIBQBgAA4ACEMgAAAAcglAEAADgAoQwAAMABCGUAAAAOQCgDAABwAEIZAACAAxDKAAAAHIBQBgAA4ACEMgAAAAcglAEAADgAoQwAAMABCGUAAAAOQCgDAABwAEIZAACAAxDKAAAAHIBQBgAA4ACEMgAAAAcglAEAADgAoQwAAMABCGUAAAAOQCgDAABwAEIZAACAAxDKAAAAHIBQBgAA4ACEMgAAAAcglAEAADgAoQwAAMABCGUAAAAOQCgDAABwAEIZAACAAxDKAAAAHIBQBgAA4ACEMgAAAAcglAEAADgAoQwAAMABCGUAAAAOQCgDAABwAEIZAACAAxDKAAAAHCDwQ5nHY3cFAAAAtyy93QXcVN++0gcfpPrpH0jq66taADiUR5Zl2V0EAD/zBHlDjCXJE5AvcssWqU4d6cgR6cEHpSVLpHz5rnuYZVlB/58IuJ1l0WgOBLtgP59blhWg3Zdbtki1a0v/+Y9Z7tNHql5d2rvX3roAAABSKfBCWWwgGzRIatbMrGvXzgSzp54imAEAgIDk/DFlccV2WX79tdSoUfxt7dpJ0dFSjRrS4sWJdmVKYtzJLYrbdBys+7KvpD638PwPJPVxwX5yFsaU3YqekgpK6n6TxyX3859FUnVJc3xQm9M8J2mRpAs3eIwbjpNpJZi7KxMTOGPKtmyRnn5a+uqr+IEs4WCSYcOkTz7xBrOEfdDB3iftT67fl9u3S7VqSX/9JVWrJs2ZI2XJct3DXL+fbMCYslvw5ZfSF19I+/dLn38uvfpqog9L9vs6Kkp69lnzh/GIEf6q2j6tW5uxzDNnSrfddt1mPv++47Z9GThjyrZuNYHsyy+vbyFLqFMn6e23TVfm/v1pUx+CX2wgix3HmCePVK+eOQEBgSo2kC1dapa/+UYaODD1Py8qSqpbV3r4YfMHcjAaPVrKmVOqX1+6cKP2MiDlnB/Ktm41J8PPP5eefz55z+nUSXrvPalaNSXeiQmkwM6dptt8wACpaVOzbuRIqUABs/78eXvrA1Jj6FDzR8ZPP5kr2CUTzr75Rvr3v1P+86KizB8qefKYFrJ0zj+9pEpIiDRmjJQrlxQeTjCDTzn7U/PPP6ZlbPBgqXnzlD23fXvpnXc0RaJfA6m3fbu5svfzz6WWLa+ttyxpyBDTRRMefmstZhs38h5F2vryS6l/f+nnn02rVuz7L3duE8xGjbrWKpwcsS1kDz0U3IEsVkiI2UdhYbSYwaec/cnJmFFavz75LWQJdeqkpyRzAgVSKm6XZWwLWVzp0pkWswcfTH1X5tSp5rl//HHr9QLJEbfLMraFLPb9N3XqtWA2ZEjygllsIAv2FrKEQkKk776T7rmHYAafcf6n5847b+npp3xUBlzmZoEs1q0Es6lTpZ49pfnzpQceuPWagZv56qvrA5l07f3Xs2fKgplbA1ksghl8LLCmxADSQmJjyG4kXTrTldG1q1Snjm5Pzu+YNu1aICte/FYrBm5u6FAziH/JkviBLK7Fi6WaNc3QkRYtTDCrVk26dOm6h2aRpOeec0+XZVJig1nbtlJ4uK6/HhNIPpd+ioAknDxprtxNOIbsZmLHmOXNqzE3e+yUKVKPHgQypJ1p0+KPIUtK4cLSvHnSa6+Z92lsi9nIkWoS93FRUZotmRa2kSPdG8hihYSYqzLDwjRDki5etLsiBKjAmacsKTeZoMht85z4k2v25e7dUsGCSW+/0XsuJkb5Q0K0N6n9NGWK9PLLBDIfY56ym4iKMn9w5M6d9GPi7sStW01r8RdfSI0bS4cP6/bcuXU+dvuZM9pw550q4//KA846SeXOnpWyZZMUxMfJNOCac85VlmURypB87MurUvueix1DtmCBVKxYWlTqGoQyH0i4E3/7zXRl9u8vtWhx3fv6TsvS6fLlpRIlzDQavrqgqndv6fRpc8u84cOl/PnNHVuyZJEOHTLdhGPHSnnzSr/+alqdn33WN787tTweU8emTcq+erXOcpz0CbedcyzLYkwZcEMXL5oD/5Ur5uQQGpq6n0MgQ6ApXFhatMgEs0SckUyLb506ZjylL4LZ6dPSrl3SrFnSunVmOqQuXcy2wYOlyEjps8/MHGEDB0q//y7961/2hrI4gUzz5+tc9uz21YKARygDkvLzz+buECVLmulZ9u83E8amUGPp2qB+AhkCSewYszp1zPs4oTvuMO/r2rWlV14xV2reSjDbt89cySmZIQR790q3324+e5cume0VK0offyx9/720cqW56tkuHo/UrZvp7p0/39tlCaQWoQxIytCh0rJlUoYM19Z17JjiH9NUMvfLLFHCV5UhAY9kRsji1twgUCV5HfIdd5gWYF8Es/TppcuXzfdRUVLmzGYcXI8eUps2ZsqJunXNpK1//WW+krqS1N/iBrIffySQwSdcfskMcAP33GOuLDt82HSrrFsn7dmT4h/TWDJdME88IZ07Zw7mfF37eu01qUMHqWpVs3/btjUnu7p1pRkzrj2uXDnz765d5i4K4eGma61tW1lywOsI9C/p+nWRkeaOFm3bxr/6MqHYYLZ2renKjP15KVWokJkj8MoV00JXubJZX7++NH68aRUrUMC8B3r0MOs3bkzd77oVHo/5/Vu2EMjgUwz0R7K5bl9euiR9+620fLn5Pn9+qXt3c1JI6XsuJkZ66SVpxw5zsrk9WbOZBb/Tp6XWra+NIerTR7rvPjPvW2SkGdNUv755bPny5qQf69w5E95eeEFWrZqpzgG4KuGxNPZellfnIbNCQm7++T9zxrSYlSyZ+jFmS5eam5mHhppxY5kymaB+6upU4MOGmcd8/710991mjNkdd6TiBadSbCC7OoYsYSBz3XHSj9y2L7n6Einiyn2Z2ED/1L7nYmLMPVkPHZLmzDFXk7ndxo1m4s0vvzQn3WrVzF08FiwwrSFRUSaMSfFD2fTp5sq899+Xypfn6ktfiLsT497L8uo8ZMn+/J85Y+6GUbFiyu6fGSheeumGXZauPE76idv2JVdfAjfio4H+XrG3ZGrf3rRAzJ5NMEs4hih/fql58/jjh2JDWayICBPiFi0yLZi7dkl6JM1LD1pxW8hSMzHsHXdICxdKc+f6pz67VawoffopXZbwC8aUAUmJHej/9dfmL/6ZM00rwK2IvSVTgQJmKoHz531SasBKbAxR3PFDcSfxPXjQ3NZn1y4pa1YT6KZNM61m8I2oKLOPH3zw1mbqv+MOc5umYNSqFYEMfkMoA5Lio4H+14m9JVO+fGawekpuYh5sMmWSPvxQeuEFafNmM0i8Qwfp+edNF2/hwtceGzv2rGZN89WkibR+vblDAnyjXj1unQTYiDFlSDbX7UtfDvRP7PGxY8wiIujKvEWMKbtFUVGm9fHFF5MMZK77/KcS+8l33LYvGeiPFHHlvjxzxnTF7NljBqKXLWtOWL56z8XEmJai7t2lHDl8Xb1rEMpu0YkTpmU4OjrJFjJXfv5Tgf3kO27bl4QypIjr9uXAgdLRo9Jjj5kWs+LFzfL33/OecxhCWQokdeswjqU+wX7yHbftS66+BG5k3ToTwF54wUzRkDGj9OqrdlcFpF5SVxR/9pndlQEQt1kCklawoLn0vWhRM2Fl6dLmSkEgUCV167A//7StJADXcHkNkJQPPzQ3R9671wz2nzrVzFIOBKqkrigOC7O7MgDi6kukAPvyKt5zjsOYsmSKe0VxbBj79lsztoz3tU+wn3zHbfvSsixaygDANbp2lbp0MeMkc+QwLcGffGJ3VQCuIpQBgFucPWtawyZPNvduHDFCyp5d+vtvuysDIEIZALjL6NHX7hkaGWmuwMyc2e6qAIgxZUgB9uVVvOcchzFlyXTsmJmjbM8ec1Xx0aNm54WH8772EfaT77htXzJ5LFKEfXkV7znHIZSlQkSE6c4sWtQs8772CfaT77htXzLQHwDcpF0703U5Y4a5z+WgQWYdAEcglAGAWzDQH3A0QhkAuAkD/QHHYkwZko19eRXvOcdhTFkyMdDf79hPvuO2fclAf6QI+/Iq3nOOQyjzAd7XPsF+8h237UsG+gOAG5w/Lx06lPrnR0Qou++qAZAEQhkABLtFi6QqVcz4sZQ6eFCqWlW1fF4UgIQIZQAQ7Bo0kN57T6peXdq3L/nPi4iQnnpKevVVTfVfdQCuIpQBgBu0b2+C2VNPJS+YRURI1apJr7wide/u//oAKL3dBQCOc+KElCNHqp+e+mcCfta+vXTliglmS5ZIefMm/riDB02rWq9eUrduaVoi4Ga0lAFxnTwpFS8uLV6cuue/+aZG+7YiwLc6d5beesuErsTGmBHIANsQyoC4QkOlqVOlli2ln35K2XPffVdasEAv+qUwwIc6dzbv14RjzCIipBo1TJclgQxIc4QyIKGKFa8Fs+S2mL35pjRvnvTTT+KGNQgIHTqYFrOnnpIOHDDrqlY1gaxHD1tLA9yKMWVAYipXlqZNkxo1kiZONCeupLz1lrRwoZl24O67065G4FZ17mwmjK1WzSzTZQnYihn9kWyu3JcrVkjPPx8/mMV9z731ljR/vunqvBrIEttP8DePzOEMqdFFUmlJHW/yONd9/lPBlcdJP3HbvuQ2S0gR1+7LVatMi9n48Wa8Tex77t13pblz4wUyyUX7xUG4zVLa432eONceJ/3AbfuS2ywByVGpkjRlSvwxZm+9lWggAwAgtWgpQ7K5fl/GdmUeOyaVLJlkIHPdfnEAWsrSHu/zxLn+OOlDbtuXlmUx0B+4Tt++0gcf3PgxmzcnOcHsIiU9jiyvpLGSakuKvIUSkZCHsXs+dLuk+ZJekHQgice8kXblAK5BSxmSjX2ZTEm9J/fvN/NCvfWWueoNPkNLmR98+63Ur5+0dKn08MPXb2enJ4rjpO+4bV/SUgaklUOHpJo1pddfJ5AhMHTpIqVPb6bLWLxYypfP7oqAoEcoA/zt0KFrt6156SW7qwGSr0MH8+9TTxHMgDRAKAP8iUCGQEcwA9IMoQzwFwIZggXBDEgThDLAHwhkCDYJgxkAnyOUAf5QpQpXWSL4dOggXbly43vBAkg1psRAsrEvkyE62lyxBrjBlStSSIjdVTgKx0nfcdu+ZEoMwNdiT1BhYdKkSaYLEzfWu7d0+rS0d680fLj0ySdSliymC7hDB6lwYTOViCRFRZmv2Il7o6Kk3LlljR7FlFlpZckSqXlzc2cLAhngU9z7EvCH//5XatGCsTc3c/q0tGuXCWP9+kndu5v1gwdLkyebVvCCBaUZM6Rx46RcuaQ+feIvN29u72twk+XLzf7+/nu7KwGCEqEM8IdKlaRp0+LfxBzX27dPypPHfF+woHTkiLnzwaVLZluuXGbb9OlS06bmoomaNa9fhv8tXy41bmwCWdWqdlcDBCW6LwF/iQ1mDRtKEycyODox6dNLly+b76OipPz5TUtMmzbShQtS3brSffdJX34pLVpkwtqiRfGXd+2S9IitLyPorVhBIAPSAC1lgD9VqkRX5o0UKiRt324GjM+bJ1WuLNWvL40fL9WrZ1rPLlyQsmY1AW7aNBNw4y5Pn273qwhuK1ZIzz9vupMJZIBfcfUlko19mUyJvSdXraLFLClLl0rDhkmhodLAgeaei6dOmW3DhpmLJr74wuzDnDml/v3N+jjLVpbbGOjvD3EDWbVq8bdxQ/JEcZz0HbftS8uyCGVIPvZlMiX1niSY+Q35wA9uFMgkdnoSOE76jtv2pWVZdF8CPvfGG4mvr1RJmjLFTPMQGZm2NQEpcf681Lq1NHVq4oFMSvp9DiDVaClDsrEvfSQy0oyJgs/QaOMHvE9TheOk77htX9JSBtiBEx0CAe9TIM0RygAAAByAUAYAAOAAhDIAAAAHIJQBAAA4AKEMAADAAQhlAAAADkAoAwAAcABCGQAAgAMQygAAAByAUAYAAOAAhDIAAAAHIJQBAAA4AKEMAADAAQhlAAAADkAoAwAAcABCGQAAgAMQygAAAByAUAYAAOAAhDIAAAAHIJQBCE4REdL27XZXAQDJRigDEDzatZMuXZJmzJBefFEaNMisA4AAQCgDEDzOnpU8HmnyZOnHH6URI6Ts2aW//7a7MgC4KUIZgOAyerRpLdu1S4qMlPbvlzJntrsqALgpS5LH4/HYXUfqWZb5yzjJzZbivr6Ey0g+9iWcynsYmDVLCgmR/vxTKlpUOnrUbAwPt7tEuATHSd9x2760LEvp7S4CAHxm7FgTwl5+WapQwe5qACBF6L4EEFy++kpasEBq3Fj673+l8+ftrggAkoVQBiC4ZM4sffSRNHSotG+f1LCh3RUBQLIQygAEjzJlpAwZzPehoVLv3tLChfbWBADJxEB/JBv7Ek4V7zCwe7dpLXvwwWvLBQvaVhvcheOk77htX1qWRUsZgCDy9ddSr15S+/bS9Olm3euv21sTACQTV18CCB4//2ymxYiOlp57TqpRw+6KACDZaCkDEDzuu08aN066eFF6/32pWzcpKsruqgAgWQhlAAKWZVmyLEt5dFC3WZayfPGFmTj299+l8uWl1q2l+++/+Q/atcv/xQLATTDQH8nGvoTTxL4Hv7ReVs86u3Xb/Pm6kNL35E8/SS1bSmvWSHnz+qdQuAbHSd9x275koD+AoPCqBko5cmimZLouk2v5chPIvv+eQAbAdrSUIdnYl3AKy7K833s8HnMYuBKt8enTK0xSuHTzFrNFi6QWLaQpU6SqVf1ZLlyE46TvuG1f0lIGIGB5PJ74B+iQELW6ckW1WrUyLWYXLiT9ZAIZAAcilAEIHiEh0pgxOiZJ9esnHswIZAAcilAGILiEhOhFSQoLuz6YxQayqVMJZAAch1AGICDFToeR2LpoSRozJn4wixvIqlSxo2QAuCEG+iPZ2Jdwmtj3YOxh4Lr3ZHS09MIL0sGD0r590n//K1WqZFu9CH4cJ33HbfuSgf4AAp5lWeqrvpJlyWNWXPtKn16aNMnMQXbsmFS5cvztcb/69rX3hQBwPVrKkGzsSzjVTQ4DQJrhOOk7btuXtJQBAAA4BKEMAADAAQhlAAAADkAoAwAAcABCGQAAgAMQygAAAByAUAYAAOAAhDIAAAAHIJQBAAA4AKEMAADAAQhlAAAADkAoAwAAcABCGQAAgAMQygAAAByAUAYAAOAAhDIAAAAHIJQBAAA4AKEMAADAAQhlAAAADkAoAwAAcID0dheAwGZZlt0lAOqrPpL1wS39jA8k9fVJNQCQOpYkj8fjsbuO1LMs6Qb1W5aluK8v4TKSj30Hp7rhYeC996Rx48wDFi+W8udP09rgbhw3U89t52/Lsui+BBDE3n9fmjVL2rBB6tNHeuopae9eu6sCgETRfQkgOL3/vjRzpmkdy5FDatfOrH/qKVrMADgSoQxA8EkYyGIRzAA4GGPKkGwM6odzeWQOZ2bAfn1JT0k6kcSj20nqc/UxdGbC3zjnpI7bzt+WZRHKAAQ+72GgTx9pxozrW8gSM2qU9MEHtJgBDuW287dlWXRfAggSKQlkEl2ZAByHUAYg4L2r/5OmT09+IIvVrp0UE2OC2cqV0gMP+K9IALgJui8BBLwK1lqtOZZPuuee1P2ABQukatWkjBl9WxiAVHPb+ZsxZQCCwk0OAwACkNvO30weCwAA4BCEMgAAAAcglAEAADgAoQwAAMABCGUAAAAOQCgDAABwAEIZAACAAxDKAAAAHIBQBgAA4ACEMgAAAAcglAEAADgAoQwAAMABCGUAAAAOQCgDAABwAEIZAACAAxDKAAAAHIBQBgAA4ACEMgAAAAcglAEAADgAoQwAAMABCGUAAAAOQCgDAABwAEIZAACAAxDKAAAAHIBQBgAA4ACEMgAAAAcglAEAADgAoQwAAMABCGUAAAAOQCgDAABwAEIZAACAAxDKAAAAHIBQBgAA4ACEMgAAAAcglAEAADgAoQwAAMABCGUAAAAOQCgDAABwAEIZAACAAxDKAAAAHIBQBgAA4ACEMgAAAAcglAEAADgAoQwAAMABCGUAAAAOQCgDAABwAEIZAACAAxDKAAAAHIBQBgAA4ACEMgAAAAcglAEAADgAoQwAAMABCGUAAAAOQCgDAABwAEIZAACAAxDKAAAAHIBQBgAA4ACEMgAAAAcglAEAADgAoQwAAMABCGUAAAAOQCgDAABwAEIZAACAAxDKAAAAHIBQBgAA4ACEMgAAAAcglAEAADgAoQwAAMABCGUAAAAOQCgDAABwAEIZAACAAxDKAAAAHIBQBgAA4ACEMgAAAAcglAEAADgAoQwAAMABCGUAAAAOQCgDAABwAEIZAACAAxDKAAAAHIBQBgAA4ACEMgAAAAcglAEAADgAoQwAAMABCGUAAAAOQCgDAABwAEIZAACAAxDKAAAAHIBQBgAA4ACEMgAAAAcglAEAADgAoQwAAMABCGUAAAAOQCgDAABwAEIZAACAAxDKAAAAHIBQBgAA4ACEMgAAAAcglAEAADgAoQwAAMABCGUAAAAOQCgDAABwAEIZAACAAxDKAAAAHIBQBgAA4ACEMgAAAAcglAEAADgAoQwAAMABCGUAAAAOQCgDAABwAEIZAACAAxDKAAAAHIBQBgAA4ACEMgAAAAcglAEAADgAoSyhLVuky5ftrgIAgOB1+bI53yIeQllcP/8s1aol7dhhdyUAAASvHTvM+Xb5crsrcRRCWayVK6UmTaRJk6SSJe2uBgCA4FWypDR1qtS4sbR0qd3VOAahTDKBrFEjE8iqV7e7GgAAgt8TT5hg1qwZwewqQhmBDAAAexDM4nF3KCOQAQBgL4KZl3tDGYEMAABnIJhJcmsoI5ABAOAsBDNZkjwej8fuOlLPsqQb1G9ZluK+viqWpZ/DwqTJk6Vq1dKiQgB+dpPDAIBAsmSJ1Ly5njx2TMvjfLATns+DjWVZSm93EWmttSQdO0YLGRBEPJL5ExNA0GhjdwE2cF1LmWVZ8rz7rjR7tvTTT1KOHGlRJYCk9O4tnT4t7d0rDR8uffKJlCWLdOiQ1KGDFB4uDR5sJps8cUJq0cJ8fuM8xqofTksZEAxOnZJq1pSqV5c1YMD15+8g/qC7sqVMkvTRR+bfGjUIZoCdTp+Wdu2SZs2S1q2TuneX7rvPhLDISGnRIik6WpozR5o3Tzp3TpoyxTw37mMABL44gUz9+0sDBthdUZpzZyiTCGaAE+zbJ+XJY74vWFA6ckS6eFG6dMlsy5VLOnBA+uMP02r2559Sx47S/v3xHwMgsCUMZC7l3lAmEcwAu6VPb25MLElRUVL+/FLz5lKbNtKFC1LdutKTT0r33iuNGiX9/rv05ptSjx7xH6Pytr4MALeAQOblzikx4vroI6lePRPMTpywuxrAXQoVkrZvl65cMd2TlStL9etL48ebz2XBglLevGb75cvSnj0moCV8DIDARCCLx50D/RN7/HvvMfgfsMPSpdKwYVJoqDRwoNSlizlQS2Z9WJgZNzZ8uHTXXVK/ftKrr8Z7jJUzjIH+QKC5SSBL9vk7SFiWRSiLh2AGBCTmKQMCTDJayNwYytw9piyhjz6SsmWTzp4llAEA4C+nTklNmkivv253JY5CSxmAgEdLGRB83Hb+tiyLgf4AAABOQCgDAABwAEIZAACAAxDKAAAAHIBQBgAA4ACEMgAAAAcglAEAADgAoQwAAMABCGUAAAAOQCgDAABwAEIZAACAAxDKAAAAHIBQBgAA4ACEMgAAAAcglAEAADgAoQwAAMABCGUAAAAOQCgDAABwAEIZAACAAxDKAAAAHIBQBgAA4ACEMgAAAAcglAEAADgAoQwAAMABCGUAAAAOQCgDAABwAEIZAACAAxDKAAAAHCC93QUAQGpcvnxZ58+fv7p0l06dOiVJuv3225Xh5EkpZ077igOAVCCUAXCc6Oho7du3T1u3btXevXt16NAhHTp0SIcPH9bff/+tv//+W9HR0br99tslSX3VU3eFfpDkz5tbpoy2P/+88ufPr+LFiytfvnxKl46OAgDOYknyeDweu+tIPcuSblC/ZVmK+/oSLgOw359//qmVK1dqzZo1WrNmjbZt26ZcuXKpWLFiKliwoPLkyaOHHnpIuXPn1t133627775bt912m/f53sPAqlVSw4bSsWO68tBDOtqkiTZXqaKDBw/q0KFD2rVrl7Zv366jR4+qePHiKl++vCpWrKhKlSrp3nvvtW8HALiO287flmURygCkvZiYGK1cuVJz5szRggULdPjwYVWuXFkVK1ZUhQoVVLJkSWXLli3ZP8+yJM+q1VJ4uDRmjFS3rhQRIVWrJnXsKL3xRrzHnz9/Xps2bdLq1au1evVqrVq1Srlz51bt2rVVt25dVa5cWZZl+fhVA0gJt52/CWUA0tT27ds1YcIETZw4UaGhoWrYsKFq166t0qVLKyQkJPk/6OJFKXNm72Ila7VWhTWQxo+Xata8dlyIiJCqV5d69JBefjnJHxcdHa3169dr4cKF+u9//6vTp0+rRYsWatmypYoUKXIrLxlAKrnt/E0oA+B3x44d09ixYzV+/HidOnVKLVu2THbYOX78uHbv3q2sAwao5MyZST5uv/Lq9ewntClHDmXLlk2bt2xRrZo1lSNHDpUIDVXDzZt1ol8/FShUSL1gaNAAACAASURBVDly5Ljp792+fbvGjx+vSZMmKTQ0VK1atdILL7ygsLCwFL12AKnntvM3oQyA3xw4cECfffaZJk+erIYNG+qFF15Q5cqVkxxgHxUVpVWrVmnZsmVavny5duzYIcuyVLBgQT3yyCMqWLCgnjx+XI+PHauMJ0/qcs6cOjJhgrKULKkcOe7WiRN/68yZMzp//ryKlyihnxYt0vHjx3XgwAHt3r1bu3bt0u7duyVJRYoUUZUqVVS1alVVqFBBWbJkSbSmmJgYrVixQuPGjdP06dPVvHlzvfbaa8qTJ4+/dhuAq9x2/iaUAfC5rVu36tNPP9XChQvVuXNn9ezZM8kWprVr12ru3LlaunSptmzZolKlSqlq1aqqUqWKSpQoEb9Va9o06aWXpHnzpDJlpEmTpNdekxYulFXk0fiHgRscF/7++29t2bJFy5Yt07Jly7Rp0yaVLFlS1apVU926dfX4448n+rxjx47piy++0LBhw1SnTh298cYbKlq0aGp3E4CbcNv5m1AGwGd27typ3r17a9OmTfrXv/6lzp07JzpYf8+ePZowYYImTJigDBkyqFGjRqpWrZoqVKgQ74rKeOIGstKlr33uJ0+WevVSkT8XaYfn0WuPv8lxIa6oqCitWbNGS5cu1bRp0xQdHe3tYs2fP/91jz979qy+/fZbDRo0SI8//rj69++vggULJut3AUg+t52/CWUAbtm5c+f00UcfacyYMXrnnXfUpUsXZcqUKd5joqKiNGbMGI0dO1YRERFq1qyZWrVqpccee+zmvyA6WqpTR/rsM6lECbMu7uf+u+/0nxe36BXPwGvPSUEoS2jDhg2aMGGCvv/+ez344INq06aN2rRpc10X58WLFzVkyBD169dP7du317vvvqusWbOm6ncCuJ7bzt+EMgCp5vF4NGnSJL3xxhuqWbOm+vXrd1035cmTJzV48GB9/fXXevLJJ9WpUydVr149ZVdaJibB5/66w8AthLJY0dHRWrx4sYYNG6aVK1eqW7du6tatm0JDQ+M97siRI3rjjTe0dOlS9e/fX82aNbul3wvAcNv5m1AGIFX27t2r9u3bKyoqSl999ZXKly8fb/vvv/+ugQMHauzYsWrYsKF69+7t2y6+NAhlce3atUsDBgzQjBkz1KZNG7366qu6//774z1m9erV6tGjh7Jnz66RI0cqb968Pvv9gBu57fxtWRY3JAeQMuPHj1elSpX0/PPPa926dfECWWRkpN5++2099thjypAhg7Zt26bhw4cH/JirRx55RCNGjNCWLVtkWZZKliyp9957T1FRUd7HVKxYUb/88ovCw8NVoUIFTZo0ycaKAQQiWsoAJMu5c+f02muvafny5Zo0aZJKliwZb/vs2bPVs2dPlS1bVp9//rkeeOAB/xWTxi1lCf3111/eLsuPP/5YrVu3jrd9x44dat68uUqWLKkhQ4Z479EJIPncdv6mpQxAsmzcuFGlS5eWx+PRxo0b4wWy7du3q3r16urTp4/Gjx+vH374wb+BzAHuvfdejR07VhMnTtTAgQNVo0YN/frrr97tRYoU0Zo1a5QhQwaVKVNGmzZtsrFaAIGCUAbghiZNmqRnnnlGn3zyiYYNG+a9CtHj8WjgwIF66qmn1LhxY61fv16VKlWyudq09cQTT2jjxo1q0KCBqlWrpi+//NL7l3zWrFk1cuRI9e3bV3Xq1NGUKVNsrhaA09F9CSBJX3zxhT777DPNmTNHJWKno5C5/VHbtm11/PhxTZw4Ufny5UvbwmzuvkzMoUOH1LJlS2XJkkVjx45Vrly5vNu2b9+uunXr6sUXX1Tfvn3TtC4gULnt/E33JYBEeTwe9e7dWyNGjNDq1avjBbLFixerVKlSypcvn1auXJn2gcyhHnroIS1btkwVK1bUY489pvnz53u3FS1aVKtXr9bMmTP18ssvKyYmxsZKATgVLWUA4rlw4YJatWqlM2fOaNq0abrjjju82z788EONGDFCY8eOVdWqVe0r0oEtZXEtWbJEbdq0UdeuXfX22297158+fVoNGzbU3XffrXHjxilz5sy21Qg4ndvO38xTBiCeS5cuqW7dusqZM6dGjRqljBkzSpKuXLmizp07a9u2bZozZ06S97JMMw4PZZKZVLZu3boqXbq0vv76a6VPn16S9M8//+jFF1/U33//rVmzZl139wMAhtvO34QyAF7R0dFq1qyZYmJi9MMPP3hn3Y+MjFTTpk11+fJlTZ06NdH7Waa5AAhlktl3zZo106VLlzR16lRlz55dktnXrVq10oULFzR16lRvYANwjdvO34wpAyDJjCHr1KmTzp49q4kTJ3oD2ZEjR1SlShXlzJlTc+fOdUYgCyBZs2bVjBkzlC9fPj3xxBM6fPiwJCkkJERjx47VlStX1K5dO8aYAZDElBgAJHXv3l379+/XjBkzvN1px44dU9WqVVW/fn2NHDmS1pxUCgkJ0TfffKNGjRqpRo0aOnbsmCQpQ4YM+uGHH3Tw4EG98sorNlcJwAkIZYDLvf/++9qwYYNmzZql2267TZJ06tQp1apVSy1bttS7775rc4XB4f3331fTpk1Vp04dnT59WpKUJUsWzZ49WytXrtRHH31kc4UA7MaYMsDFZs6cqX/9619av369cuTIIUk6f/68atasqcqVK2vAgAE2V5iEABlTlphXX31V69at08KFC5U1a1ZJplWybNmyGjJkiJ599lmbKwScwW3nbwb6Ay62d+9eVa5cWbNnz1bZsmUlmSsDn3vuOd13330aOXKkLMuyucokBHAo83g86tKli/bt26c5c+Z4p8VYt26dwsPDtWrVKuZ+A+S+8zehDHCpqKgoVahQQV27dlWXLl2861u0aCFJGj9+vNKlc/DohgAOZZK5+rJFixbKlCmTxo4d610/ePBgjRo1SqtWrfJ2JQNu5bbzN6EMcKm2bdvq8uXLGj9+vHfdoEGD9N1332n16tXODwQBHsok6eLFi6pcubLatm2rbt26ede3adNGMTExGjdunI3VAfZz2/mbUAa40OjRozVo0CCtWbPGe3PxlStXqnHjxlq7dq0eeughmytMhiAIZZK0f/9+VaxYUdOnT1eFChUkmbnNypUrpzfeeEMvvPCCzRUC9nHb+ZtQBrjM0aNHVaxYMS1YsEClSpXyritbtqyGDh2qp59+2uYKkylIQpkkLVq0SG3bttX69et17733SpK2bNmi2rVra+vWrfbfPQGwidvO34QywGWaN2+uPHny6N///rckKSYmRtWqVVONGjX03nvv2VxdEi5elH79VbpyRcqfXwoNjf+5v3hRpW/7VRvXJbE9APTp00crV67UokWLvGP5evfurSNHjtCNCddy2/nbsiwxGyTgEvPmzdPGjRs1atQo77rBgwcrXbp0euedd2ys7AZ+/ll6+22pZEkpY0Zp/36pQIHrtrdXSWlSItsDRJ8+fVS1alV9++23eumllyRJH3zwgYoVK6aFCxeqVq1aNlcIIC3QUga4QFRUlIoVK6ahQ4eqRo0akqSIiAiVLl1aK1asUKFChWyuMAktWkjffSdlyHBtXceO0ogR5nN/dbuVMcO1w0Dc7QFk9+7deuKJJ7RhwwY98MADkqQlS5aoffv22r59u3dOM8At3Hb+5t6XgEv06dNHVapU8QYySeratat69erl3EAmSffcI40cKR0+LJ0+La1bJ+3Zc932+5XE9gBSsGBB9ejRI96VmNWrV1flypX18ccf21gZgLRCSxkQ5P766y8VLVpU27Zt03333SdJmjBhgvr3768NGzYoQ9xWKKe5dEn69ltp+XLzff78UvfupovS4/Fu/++/lqvhs4lsDzBXrlxR2bJl9dZbb6lJkyaSzP9f8eLFtX37duXMmdPmCoG047bzNwP9ARfo0aOHMmfO7L1l0tmzZ1WoUCHNnDnTO5N/QIiIkM6elYoWTfzqy0NJbw8ka9euVaNGjbRz505ly5ZNkrw3LP/Pf/5jZ2lAmnLb+ZtQBgS5P//8UyVKlNCOHTu8Uyv07dtXhw4d0ujRo22uLhnatZO++Ub68Ufpyy+lvHmlmBhp9Gjzub+6vUHmHzW9WiLbA1SrVq1UuHBh7wUYx48f16OPPqpNmzYpd+7cNlcHpA23nb8ZUwYEuY8++kgdO3b0BrLTp0/rm2++ce70FwmdPWvC1eTJJpiNGCFlz37d9mZKYnuA6tu3rwYNGqRTp05Jku655x61bdtW/fr1s7kyAP5EKAOC1MGDBzVlyhT16tXLu27AgAGqX7++8ubNa2NlKTR6tBk7tmuXFBlppr1IsD2TbrA9AOXPn1/h4eHxuitff/11TZ48WRERETZWBsCf6L4EgtRrr72mkJAQffrpp5JMF1jhwoW1adMm75QLjnfsmJk4ds8eqXBhadEi6bHHpPr1zef+6vZO1fZo2OTs5nHFil3bHsAOHTqkMmXKaOfOnbr77rslmWAWHR2tzz//3ObqAP9z2/mb7ksgSP3zzz8aN26cOnbs6F332WefqUWLFoETyCRpwQJp7Vrp77+lJUvM8m+/Xdv+5ptShQo6rnukoUOlgwelmTNtK9eXHnroITVp0iReAHvppZc0duxYRUVF2VgZAH8hlAFBaMaMGSpatKjy588vSbp48aJGjx6tV1991ebKUihzZmn6dKlQIdNCFhYmlS9/bXuQjimL1atXL40aNUr//POPJClPnjyqVKmSJk6caHNlAPyBUAYEoREjRsRrJZs2bZpKly6tPHny2FdUajRubAb5T5smZcki3XefVLVq/McE4ZiyWHnz5lXx4sU1ffp077pOnTrFu1UWgOBBKAOCzIEDB7R582Y1aNDAu27YsGHq1KmTjVXdgocfNoP9ly2THnoo/rYhQ6TChTVPz5hAtmiR1L69LWX6S4cOHTR8+HDvcq1atXTw4EHt2rXLxqoA+AMD/YEg89577ykqKso7Fmnnzp2qXr26Dh065OzZ+1MiscljPUlvD2T//POPHnzwQa1YsUIFrt5svVevXrr99tv1wQcf2Fwd4D9uO38z0B83d/Gi9L//Sb/8Ip08aXc1SIYpU6aoZcuW3uXhw4erbdu2wRPIXCZjxoxq06aNRowY4V3XtGlTTZ061caqAPhDersLgIP9/LP09ttSyZJSxoxmrE6BAtJnn9ldGZLw22+/6cKFCypVqpQkyePx6IcfftBPP/1kc2Wp9Oab0pgx5p6WN9i+UvmlymlaWZpq3bq1nn32We/0JmXLltWZM2e0Z88eb+sZgMAXWKHs4kUzZ9GVK+YgHRpqd0XBbehQM44nbgtLx47Sn3+aAddwnJkzZyo8PFyWZUmStm7dqttuu02PPPKIzZWlUr9+0rZt0ty58ddffX2x2yvPmyvPykS2B4kiRYooXbp02rFjh4oUKSLLsvTcc89p5syZeu211+wuD4CPBE735c8/S089JY0cKU2aJLVtK3Ew8q977jH7+/Bh6fRpad06Mznn1Vv2wHkWLFigp59+2rs8d+5cPfvsszZW5APffHNr24PEM888o3nz5nmX69Spo4ULF9pYEQBfC5yB/i1aSN99d32rzYgRDPT3l0uXpG+/lZYvN9/nzy917550VxJsdfHiRYWFhenw4cPKli2bJKly5crq06ePatasaXN1Puaigf6x5s2bpwEDBmjp0qWSpHPnzun+++/XsWPHlDlzZpurA3zPbefvwBron1SrDfwnUybp5ZfNHFFDhkgdOhDIHGzVqlUqXry4CWSffqqTJ09q+/btevLJJ80cXghcu3apWrVq+t///qfTp09Ln36qbNmyqUiRIlq7dq3d1QHwkcAJZf37m9aanj2lJ5+U3nnHtJLBf9q1M/t8xgzpxRelQYPMOjjSmjVrVKlSJbPw5pv66aefVKVKFWUaMEBq0kSKjra3QKTOlStSkya6beBAPfHEE1q8eLG5wEFSpUqVtGbNGpsLBOArgRPKunaVunSRXnhBypFDypNH+uQTu6sKbldvYaPJCW5h8/ffdleGRPzyyy8qV66cd3n9+vV65fJlafx4af58KSTExuqQaunTm0lxJ09W74sXtWHDBu+msmXLav369TYWB8CXAieUJRUQ4F+jR5vWsri3sGH8iiOtX79eZcqU8S4XmT5dZbZvNxfJ3HuvjZXhloWFSYsWqfTu3So0bZp3ddmyZeOFNACBLXBCmZR4QIDvxU4Se/UWNnomwS1ssmZN3vORZo4fP65Lly7pwQcf9K6rePCgoubOlXLmtLEy+EyuXDo/a5YqHjjgXfXwww/rzJkzZpwZgIAXOPOUDRli5ihLnz5+QJg92+7KgsupU1KxYtKECebGz2Fh198A+kb69JE2bLh+Xin41c6dO1W4cGGzcPXqpILR0VLx4jZW5Wdx5iLzSOZa8iS2B4tcV78kSR6PLMtSwYIFtXPnTpUvX97GygD4QuCEsrAw012ZPbsZ+Prkk0we6w933SVNnGgGhn//fcoD2fTp0uLFfisPidu5c6cKFSpkFq6GkWX33quqJUqY/xN/dTn37m2uht67Vxo+3Fyd266dlCWLdOiQuWL3t9+kMmWkGjXiP7d8eSm1Vw66cEoMXbwoNWigpZs3q9qRI97/58KFCxPKgCARON2XTB6bdqpUMdNgNG0qLVmSvOf06SNNmSItXGimL0GaOnDggPLmzRtv3fyWLc1FMeHh5oTua6dPm6EEw4ebmfUHD5Z27jTbBg824z83bzZX737xhblQ59//9n0dbvDPP1LjxlL27JrXrFm8Tfnz59e+fftsKgyALwVOKIu95c/XX0v/+Y80c6Z05ozdVQWvypWlH36Qmjc3+/1GYlvIfv5ZypXrxo+FX/zxxx/KnTt3vHX35s5t7hsZGio1aOD7KTH27TNXQUtSwYKmtez2281Yz0uXzPYaNcyYxM6dTeurP8JhsIuONsE6WzZp4kTd+8AD8Tbff//9Onz4sE3FAfClwAllTB6b9qpUMcGsadOkg1ncLktayGyTMJTNfvRRhYWFmWkwxo+XOnXy/ZQY6dNLly+b76OiTBdp7txSjx5SmzbSe++ZcaAZM5ohB6NHm3VImZAQ8/83bpwUEqKcOXNqTpEi3s25c+fWH3/8YWOBAHwlcEJZ//7SuXOmC7NsWXOAYvJY/7tRV2bfvia00WVpu6NHjypnnKssv7r/fhPKJHNSb9DA97+0UCFp+3YTuObNM62rklS/vgmC9eqZFjTJdFt+8IEJcrEOHpSee06KiPB9bcGmQQNvqA4LC9PgOAE8V65cOnLkiF2VAfChwAlly5ebKy0ffND85b17t5mvDP5XubIJZs2bXwtmffuaCwGWLqXL0gHOnj2r7HHm7Tt+/Pi1UOYvmTJJH35oJnTevNlM8CyZwf3PPy/NmWOmVLn3XunVV6UEY97UurU0a5b5TKeSZVmyrg54j/t9MMuZM6eOHTvmXb7jjjt0hqEcQFAInBuSN2pkrgrMlMnc8mfkSKlbNzPWjBuSp41ly0yL2dNPSxs3moBGC5kjZM+eXREREbrzzjslmXFGmzZt8n8ws8vVqytjP8+xF1t6P9/BePXlVUePHlWZMmX0+++/S5JOnjzpna8MCCZuO39blhVAU2KEhkqrVpnukCNHpPPnU327Hzf8Ne0vVSX1++471ZN0PFhP+AHIsixzI3JJHo9HJ06ciNedGWw8SvpzbFnWDbcHg4wZM14No5ayZ8+uc+fOBfXrBdwicFrKTp6UPv7YBLIePcw4luPHpYYNU9RSBh+IbYkA7OLGecoAlwv287llWQr4I5dHlszfxYB7vaFP9anekCSV0zp11HB1UPBeCHOzz32wHxdGqr2GqZPWydyAPu7/P4DAFTgtZUm5yV/EKU7WMTHShQs3v7+jm507Z+ZMgnPEfg7WrTNzWo0ebcb+BSu3t5T9+KOZQHvmTKlcueB/vYDc0VImmVAWuG5Sf8LXJzMcJdGvdJJnpORZK3my3+Bxbv5qJ3n+kjyPOqAWvq59eSRP9OrVHk9YmCdm7lxPxowZba/J36/X+32cw0Bi24PxK2PGjJ6YuXM9npw5PVdWrYr3ektIns8dUCNffKXkK5fkGS55MidYf6PzebCR5HFdS1mSSTsmRurY0cxGvmyZVLGi+Ws0zjQDrjdqlJkKo0cPadAgc1P4Rx+1uypIkmXJExYma8wY6emnlTt3bm3cuDF4B/u7+OrLI0eO6PHHH1dERIQ0b55iXnxR6Y4fN69361apTh3pq6/MFetAoIiONtPknDzpvV+vG6++JJRJ8QPZnDnmVjEvvWTmXiKYGaNHm9n7Fy+WChQw9x997TWCmRNERpr3LNxt9WoTxL780swTBwSa6Ggz7+GpU9L06bJuu811oSxwJo/1l4SBLHYs2eDBUsmSZlzOuXP21mi3hIFMMhPJfvaZVLOmuZUO7HP1PXslNFRas0byeFS7Vi0t/ukn8weLP79ee81MFlu1qrntmcdjxjp16ybVrWtuRp5wOfa55cql/vdK8ZYt3Xh7MH0tWrhQdWrXNstr1pj/d4lAhsAXEmLu1nPXXVKDBspsdz02CJx5yvwhqUAmmRa4wYOl7t1Nd8D8+e4c3J5YIIvVvLn5t2ZNWswcYGuvXnosPFyaOVP33HOPjh496t9fePq0tGuXmZV/3TrzeenSxWwbPNi04H31VfzlRYv8W5MLHDlyRLly5ZLWrpXCw7Wta1eV+vhj6a+/pMaN7S4P8JmhdhdgA/eGshsFslhuD2Y3CmSxmjc3f7ETzGy39b779Nh330nh4Spbvbr/Q9m+fVKePOb7ggWlvXtNN+r+/dKlS2Z7/vzmcxO7zC25btnRo0dV9soVc5Xt2LHa+PvvKiWZ21ktXCgVLWp3ic7Vu7f5Y2LvXmn4cHNHmLjLMTHS66+bx0ZFma8cOa4t585txtbCv/7zH2nIEL2zd69a211LGnNn92VyAlms2GBWooS7ujKTE8hitWghDRhAV6aNlleooD/++MP88fDdd3p6xw4dPnzYv780fXrp8mXzfVSUlDmzOWn16CG1aSO9954ZGxJ3eds2/9bkAocPH1atrVulsWOl2rV1+PBhrahY0ZzIatUyN4nH9WJbdocPl/r1k/7v/+IvDx5s/riYMcN0oeXKZY6BcZdjewfgP4MGSUOGSEuW6A+7a7GB60KZJZnxLbt3mxucJ2c+MsuSvv5aKlXKnPTOnvV3mfYaPVp6911pwYKbB7JYLVqYk0LNmpwUbLCnfXvt27fPLNSpo739+mnr1q3+/aWFCpn/6ytXpHnzzI3rJal+fWn8eKlePXOSS7gc6+BB6bnnpIgI/9YZZLZs2aIDn30m1a4tSdqzZ4/2d+pk7kv75ZcmmBF+r5ewZXfBgutbeiVz5V/TpuZir5o1r1+G/wwaJH3xhel1eeABu6uxhetCWRXJ/HU0f37KrlizLHPAK1FCGhG8M6Xr1Clp4EAzLUjhwil7bpMmpsXs3Xf9UhqSVqhQIe3cudO7XKpUKf3vf//z7y/NlEn68ENztdTmzVLXrmZ9hw5msPmcOeY9lHA5VuvWZjzagw/6t84gs3XrVpUoUcK7/Ntvv6lw7H59/nnzx9E779hUnYMlbNm9/fbrW3ojIsxxftYsqVgxEw7iLu/aZV/9we7wYdMgsHz5tbDsQu6cEiM6Wkp3gzx6o58Zuz6Y7/0YE3Pj/ePv5yPFTp48qXz58unUqVPedbly5dLGjRt1//3321iZn7h0Rv+IiAhVqFDB2zXt8XiUPXt2HT58WNnjTt3DZ/B6ly5JNWpIS5eak//Jk+YPhdjlyEgzRKVXL7N+7Fiz7fjxa8t//im9+abdryR4JXjfunGeMncO9L+Vg1Uwh7FYt3ow52SQ5kJDQ5U1a1YdOHBADz/8sCSpZMmS2rx5c3CGMpfavHmzSpYs6V3eu3evcuTIET+QSXwGExO3ZTc01PQIPP54/OVMmUwXZZMmUs6cZmzTsGHXlvv3t/tVBDfety4NZUAQevzxx/XLL794Q1mpUqW0efNmPfvsszZXBl/ZtGmTHnvsMe/yL7/8orJly9pYUYCpVs18JbUsSS+/bL6SWgb8iFgKBImyZctq/fr18ZZXr15tY0XwtTVr1qhMmTLe5Q0bNsRbBhDYCGVAkKhYsaJWrFjhXa5Ro4ZWrlypqKgoG6uCr0RGRmrNmjWqXr26d92KFStUsWJFG6sC4EuEMiBIVKhQQTt37tTp06clSdmzZ1fp0qW1dOlSmyuDLyxatEjlypVTtqsTWJ88eVJ79+5VuXLlbK4MgK8QyoAgkTFjRpUvX17Lly/3rnv22Wc1d+5cG6uCr/z444965plnvMvLli1TpUqVlCFDBhurAuBLhDIgiNSuXTteCHvmmWc0b948GyuCL3g8Hs2bNy/eRRtz585V7asTyAIIDoQyIIiEh4dr9uzZiomJkSQVLlxYISEh/p/dH361adMmZcmSRQWu3mEjOjpac+bMUXh4uM2VAfAlQhkQRPLly6d77rlHa9eu9a5r3ry5Ro8ebWNVuFVjxoxR8zj3XVy9erVy586thx56yMaqAPgaoQwIMk2aNNG4ceO8yx06dNCECRN08eJFG6tCal24cEETJ05U+/btvevGjRunJk2a2FgVAH8glAFBpn379poyZYoiIyMlSXny5FHp0qU1bdo0mytDanz//feqWLGiHrh6g+bz589r2rRpat26tc2VAfA1QhkQZHLlyqVKlSrphx9+8K7r1KmThg0bZmNVSK3hw4erY8eO3uVJkyapatWquvfee22sCoA/EMqAINSxY8d4IaxevXrau3evfvvtNxurQkrt2LFDERER8abCGDFihDp06GBjVQD8hVAGBKGnn35af/zxh7Zt2yZJSp8+vbp06aL+3FA5oHz66afq2rWrQkJCJElbtmzRkSNHVKtWLZsrA+APliSPx+Oxu47UsyzpHoyPvQAAIABJREFUBvVblqW4ry/hcmp+JhAI+vTpoxMnTujrr7+WJJ09e1YFChTQ8uXL9cgjj9hc3S1K8Bm97iMbBJ/hX3/9VdWrV9eePXu8s/h37dpVuXLlUp8+fWyuDvC/VJ2/A5hlWYSy1PxMIBAcP35cjz76qDZt2qTcuXNLkvr166ctW7Zo0qRJNld3i1wQyho3bqzy5curV69ekqTff/9dJUuW1G+//aawsDCbqwP8j1AWiAhlQJLeeOMNnT9/3ttaFhkZqQIFCujHH39UiRIlbK7uFgR5KNu6daueeeYZ7d69W1myZJEkde7cWTly5NDHH39sc3VA2iCUBSJCGZCkEydOqFChQtq4caN3otEvvvhCS5cu1YwZM2yu7hYEeSirV6+e6tSpo27dukmSDhw4oMcff1y7du1SaGiozdUBacONoYyB/kAQy5Ejh7p27ar/+7//867r3Lmztm3bpgULFthYGZIyb9487dy5M94Vlh9++KG6d+9OIAOCHC1lqfiZQCA5deqUChYsqLVr1ypfvnySpEWLFnnDWdasWW2uMBWCtKXs3LlzKlasmEaNGqXq1atLknbv3q0nnnhCu3fv1h133GFzhUDacWNLGaEsFT8TCDT9+vXTqlWrNHv2bO+6F198UaGhoRo4cKCNlaVSkIaynj17KioqSiNGjPCue/rpp1WjRg3vgH/ALQhlgYhQBtzUlStXVLZsWb311lveeyaePHlSRYsW1bRp01ShQgWbK0yhIAxl69atU6NGjbRt2zbdddddkqQJEyaof//+2rBhgzJkyGBzhUDaIpQFIkIZkCxr1671nvRjxyZNnjxZ//73v/XLL78oU6ZMNleYAkEWyi5evKgyZcqob9++ev755yWZizSKFSum2bNnq0yZMjZXCKQ9QlkgIpQBydazZ09FRkZq5MiR3nVNmzbVnXfeqaFDh9pYWQoFWShr3769Ll68qAkTJnjXtWnTRjly5NDnn39uY2WAfQhlgYhQBiRbZGSkihUrpmHDhqlGjRqSpPPnz6t8+fJ65ZVX1L59e5srTKYgCmXDhg3T4MGDtWbNGu9FF0uXLlW7du20bds23X777TZXCNiDUBaICGVAisybN08vvfSSNmzYoBw5ckiSdu7cqSpVqmjevHkqXbq0zRUmQ5CEsvXr16tevXpasWKFChQoIEk6duyYypQpoxEjRnCPS7iaG0MZ85QBLvPMM8+oRYsWatq0qaKjoyVJhQoV0rBhw9SoUSOdOHHC5grd4eTJk2ratKmGDBniDWTR0dFq1aqV2rZtSyADXIhQBrjQRx99JMuy4t3YOjw8XM2aNVODBg0UFRVlY3XBLzIyUvXq1VPLli3VsGFD7/q3335b6dKl44bjgEvRfZmKnwkEg5MnT6pMmTL6/PPP1aBBA0mSx+NRp06ddPDgQc2ZM8e5V2QGcPflP//8o/r16yssLEyjR4+WZVmSpFmzZqlnz57xupUBN3Nj9yWhLBU/EwgW69atU3h4eLwxTdHR0WrWrJliYmL0/fffK3369DZXmYgADWVXrlxR48aNlSlTJk2YMEEhISGSAnBMH5AG3BjK6L4EXKxcuXLq16+fateurT/++EOSFBISogkTJujChQtq3769YmJibK4yOMTExKht27a6fPmyxo37//buPLyq6t7/+OdAGEREZAaHIsUAKrVOqEARgYAgQ6QXUaAXGZzBsQh1+Cl6tUDVFgSBAEJvUbGioEUkQQmDTFc0DkgNyJAolDDIjAGSrN8fyySQOSc52euc/X49D0+GvbNZZ2WffT75rnXW/kdOIEtNTdXNN9+sl19+mUAG+ByhDPC5O++8UyNHjlRMTIz27t0rSapatarmz5+vlJQU3XnnnTp58qTHrQxvJ0+e1ODBg/Xjjz/qnXfeyVmdPy0tTTExMXrsscc0aNAgj1sJwGuEMgB65JFHdNttt6lLly46cOCAJKlGjRqKj4/XiRMn1L17dx06dMjjVoanI0eOqHfv3jp27JgWL16ss846S5J06NAh9ejRQ4MGDdLIkSM9biUAFxDKAEiSxo4dq65du6pHjx46evSoJKlatWqaN2+err76arVv316pqaketzK87Nq1Sx06dFCLFi00f/78nEB2/Phx9erVS+3bt9fTTz/tcSsBuIJQBiDHhAkTdNlll6l79+766aefJNnJpxMmTNCdd96p3/3ud/r66689bmV4SEpK0nXXXafBgwdr4sSJqlTJXm7379+vmJgYtWzZUn/72988biUAlxDKAOQIBAKaMWOG2rVrp3bt2mn79u052x577DG99NJL6tKli6ZNm+ZhK91mjNGUKVPUrVs3TZw4UQ8//HDOtm3btqlt27a68cYbNX369JzlMABAYp2yoI4J+MGsWbP07LPPasGCBbrmmmtyvr99+3YNHDhQDRs21MyZM1W3bt2Kb5yjS2Ls27dPw4YN065du/Tmm2/mLDMi2VsqxcbG6sknn9T9999f4W0Dwg1LYgDAL4YNG6YpU6aoR48eWrRoUc73L774Yq1cuVJXXHGFrr76aq1YscLDVrojMTFRV155pZo2barVq1efEcji4+PVu3dvTZ8+nUAGoFBUyoI4JuAn69evV9++fXX33XfrqaeeyllfS7JhY+jQoYqNjdXzzz+vOnXqVEyjHKqU7d+/X08++aQWLVqk2bNnKyYmJmdbRkaGxo4dq9mzZ2vBggW69tprK6RNQCSgUgYAeVx33XVKSkrS+vXr880z69atm7799ltFRUWpZcuWmjhxYs5NziNdVlaW/vd//1etW7eWMUZfffXVGYEsNTVVnTp10rp16/TZZ58RyAAUi1AGoFgNGjTQokWL1LdvX91www1asGBBzrbatWtr4sSJ+vjjj7VgwQK1adNGa9as8bC1offpp5/q6quv1pw5c5SQkKDp06efMbdu/vz5uvbaa9WnTx8lJCSocePGHrYWQLhg+DKIYwJ+9n//938aMGCAOnfurPHjx6t27dpnbJ83b55Gjx6tVq1aacyYMerYsWP5N8Kj4ctly5Zp3Lhx2rx5syZMmKDbbrvtjO0HDhzQqFGjtHLlSr311lvcNgkoA4YvAaAYbdq00RdffKHKlSurVatWmjVr1hn3x7z99tu1ZcsW9e/fX/fdd5+uv/56LVy4MGzvoZmVlaUFCxbouuuu04gRIzRw4EBt2bLljECWlZWluLg4tWrVSmeddZY+//xzAhmAUqNSFsQxAVhJSUkaOXKkTp06pVdffVVt2rQ5Y3tWVpbef/99jRs3TkeOHNFdd92l/v37q0mTJqX7j9LTperVc7/O8xw9K5Cun03h24Oxa9cuzZs3TzNmzNC5556rMWPGqHfv3jmLwGZbt26dRowYoRo1aujVV1/VFVdcUab/F4BFpQwASuHKK6/UqlWrNGLECPXt21fDhg1TSkpKzvZKlSrp1ltv1fr16zVt2jRt3LhRrVu3VkxMjObMmaPDhw8X/59kZkpt2kinLctxhjFjNEkPlsvjOXTokObMmaOYmBi1bt1amzZtUlxcnNatW6fY2NgzAtn27ds1ZMgQ9evXT48++qhWrFhBIANQJlTKgjgmgPwOHz6s8ePHKy4uTt27d9fo0aN12WWX5dsvPT1dixYt0htvvKHExER16NBBnTp1UseOHfWb3/wmXyVKkpSUJPXoIU2bJvXpk/scfeop6cMPVe/Lj7XPnLaIbQmfw1lZWfr666+1fPlyLVu2TKtWrVKnTp00cOBA3XLLLapWrVq+n9m4caPGjx+vJUuW6L777tPjjz+umjVrlqqvABTPj5UyQlkQxwRQuEOHDmnq1KmaNGmS2rRpozFjxuj6668vcN8DBw4oISFBK1as0PLly5WWlqYOHTropptuUuvWrdWiRYvcoc4NG6SePaUZM6TevaXRo6WEBGnpUgXq1S3RRP+dO3dq8+bNOUFs5cqVatSokTp27KiOHTsqJiYm3xsXsq1Zs0bjxo3T559/roceekj33nuvatWqVdbuAlAIQlk4IpQBTkpPT9fs2bP10ksvqUGDBho0aJD69++vevXqFfozu3fv1vLly7Vq1Sp9++23Sk5O1tGjRxUdHa3o6Gh1rFlTf3j7bdU4ckSHf/1rJf3lLzrr/PN1/XXXat36z3T48GFlZGTo5u7d9eqkSdq7d682b96s77dsUfLmzTrnnHPUokULXXrpperQoYM6duyohg0bFtqevXv36u2339bcuXO1b98+jRo1SoMHD1b10+e3AQgJQlk4IpQBTsvMzNTSpUv1xhtv6MMPP1S7du00YMAA9enTRzVq1Cj25w8fPqyjf/yjmsyYUeg+R3SOpjatq6XNm6ty5cpaEh+vB0eOVL169XRdpUpq9+67ylq2TLXOO6/Y/+/YsWNauHCh3nzzTa1Zs0a9evXSgAEDFBMTc8bdDACEFqEsHBHKgLBx7Ngxvf/++3rjjTe0du1ade7cWV27dlW3bt100UUXBX3cXwVSldLsJunRR6UHHsh9Dn/xhXTLLdL06XbIsxA7duxQQkKC4uPjtWzZMrVt21YDBw5UbGxsiYIjgPJHKAtHhDIgLO3du1fx8fGKj49XQkKCzj77bLVr10433HCDrrnmGl166aUlnkAfCEgmJVW66ZdgNmKE9PnnBQayI0eOaNOmTdqwYYPWrl2r1atX6+eff1bXrl3VtWtX3XzzzUUOsQKoGISycEQoA8KeMUbJyclau3at1qxZo6SkJP373/9Wo0aN1KJFCzVt2lRNmzbV+eefr7p166pOnTqqW7euAoGAatWqpfr162nv3n06/u23ajJwoKJ27tTJ2rW1Zvhwra9XTzt27NCOHTuUnJystLQ0tWrVSldeeaXatm2rtm3bqkWLFl53AYA8CGXhiFAGRKTMzExt3bpVmzdvVkpKilJSUrRr1y7t378/559k55yN2PeAntHYQo/1WY8e2nP//YqOjlazZs2YGwaEAUJZOCKUAb6X7yl76pRUpYpn7QFQdn4MZazoDyDyEMgAhCFCGQAAgAMIZQAAAA4glAEAADiAUAYAAOAAQhkAAIADCGUAAAAOIJQBAAA4gFAGAADgAEIZAACAAwhlAAAADiCUAQAAOIBQBgAA4ABCGQAAgAMIZQAAAA4glAEAADiAUAYAAOAAQhkAAIADCGUAAAAOIJQBAAA4gFAGAADgAEIZAACAAwhlAAAADiCUAQAAOIBQBgAA4ABCGQAAgAMIZQAAAA4glAEAADiAUAYAAOAAQhkAAIADCGUAAAAOIJQBAAA4gFAGAADgAEIZAACAAwhlAAAADiCUAQAAOIBQBgAA4ABCGQAAgAMIZQAAAA4glAEAADiAUAYAAOAAQhkAAIADCGUAAAAOIJQBAAA4gFAGAADgAEIZAACAAwhlAAAADiCUAQAAOIBQBgAA4ABCGQAAgAMIZQAAAA4glAEAADiAUAYAAOAAQhkAAIADCGUAAAAOIJQBAAA4gFAGAADgAEIZAACAAwhlAAAADiCUAQAAOIBQBgAA4ABCGQAAgAMIZQAAAA4glAEAADiAUAYAAOAAQhkAAIADCGUAAAAOIJQBAAA4gFAGAADgAEIZAACAAwhlAAAADiCUAQAAOIBQBgAA4ABCGQAAgAMIZQAAAA4glAEAADiAUAYAAOAAQhkAAIADCGUAAAAOIJQBAAA4gFAGAADgAEIZAACAAwhlAAAADiCUAQAAOIBQBgAA4ABCGQAAgAMIZQAAAA4glAEAADiAUAYAAOAAQhkAAIADCGUAAAAOIJQBAAA4gFAGAADgAEIZAACAAwhlAAAADiCUAQAAOIBQBgAA4ABCGQAAgAMIZQAAAA4glAEAADiAUAYAAOCAKK8b4Kn0dGnTJikjQ2reXKpTx+sWAQAAn/JvKFuxQnriCem3v5WqVpW2bZMuuUR66SWvWwYAAHzIv6Fs+nRp+XKpSpXc7911l7Rrl2dNAgAA/uXfOWX160uzZkk7d0oHD0rr10tbtkgNGnjdMgAA4EMBScYY43U7ghcISEW0PxAI6PTHl/P1iRPStGnSypX28+bNpREj7MdijgnALTxlgchT6Ot3hAoEAj4OZadLTZUOH5Yuv7xExwTgFp6yQOTxYyjz7/Dl0KG2QrZwoXTnndLf/ma/BwAA4AH/hrLDh+2f1vPmSR99JM2cKdWqJe3f73XLAACAD/k3lEnS7Nm2WpacLB07ZpfFqF7d61YBAAAf8u+csj177MKxW7bYuWRpafZYffowQQUIMzxlgcjjxzll/g1lp8vMlL7+WrryyhIdE4BbeMoCkcePocy/i8f+4x92jTJJOnlSWrxYio2Vxozxtl0AAMCX/DunrHp1acECqWVL6aqr7KKx11/vdasAAIBP+TeU9etn33n57rtSjRpSkyZSx45etwoAAPiUf0OZJF18sX0H5iefSD/95HVrAACAjzGnTJKqVbOr+o8bx5wyAADgCf9WyphTBgAAHOLfUMacMgAA4BD/hjIpd07Z8uXSr37ldWsAAICPsXhsEMcE4BaeskDk8ePisf6ulAEAADiCUAYAAOAAQhkAAIADCGUAAAAOIJQBAAA4gFAGAADgAEIZAACAAwhlAAAADiCUAQAAOIBQBgAA4ABCGQAAgAMIZQAAAA4glAEAADiAUAYg7I3W+MI3njwp/eMfFdcY+MuiRVJaWuHbxxdxbgJ5BCQZY4zX7QheICAV0f5AIKDTH1/er4M5JgDHFPacPXlS6tdPioqS/vlPqXLlim8bItsLL0hvviktWyY1bJh/O68nQQvq9TuMBQIBRXndCAAIiZMnpdtus4Fs3jwCGULjySelKlWkG2+UEhOlxo29bhHCGKEMQOTJDmSVK9tAVqWK1y1CJHv8cfvxppsIZigTQhmAyEIggxcIZigHhDIAkePkSal/fwIZvEEwQxkRygBEhuxAVqkSgQzeyRvMgFIglAGIDNnvsiSQwWuPPy6dOCF16eJ1SxBmWBIjiGMCcMjJk1K1al63Aijc7t0FL5eBIvlxSQwWjwUQ3gIB+7F3b1udMMbf//btk44eLX6/nTulU6e8b28k//t//8+em5V4qUXJMHwJILxlD1VGRdkhzHfekapW9bZNXhk6VKpRQ0pJkYYPl1q1yp3jdPy4dMEF0uuvS6NGSQcPSt9/bz+Pi8u/D8rmmWekBQvs5/Xre9sWhA3iO4DI8M9/2kASG2srZn7z3Xf24+TJdl6dMVJ0tLRwob3NVKNG0h132DCWnCzNmCGNGyclJOTfB2XzzDP2j4OEBK9bgjBDKAMQGSpXlubOlc49V7r1Vv8Fs5o1pW3b7OPeutUGLMlWa/r3l+6/X4qJsduaNrXboqNttSzvPghediBbtiz3dwCUEKEMQOTwczC74AJp5Ehp8GDp6aelb76RUlOlSZOkDz6QWre2FbKoKDuXTLLDlXv25N8HwSGQoYwIZQAii5+DWWysfey9etkq2M8/S2efbYPYu+/ailjLltLGjVJGhrR4sXT11fn3QekRyFAOWBIjiGMCcExBz9nMTGnQIOnQIRs0/LBsxpAh0oED9vO4OKlBA2niRGn1arskw4QJ0lln2UVN4+KkOnWkV16Rpk3Lvw9KrqhAxutJ0Py4JAahLIhjohCZmbZKAVS0wp6zp05Jt99uq0Lvvcf5ifI3dqytMH7yScHvsuT1JGh+DGUMX6Lkxo8vfNtrr9m/0gEPjNfogjdUqWLfiXjHHQQyhMZnn0kDB7LsBcoFlbIgjulbhfXLjBnSCy/Y0n2zZhXfLvgeT1l4JjXV3ufykUekESPyb+fkDJofK2UsHouyIZAB8LOLLrJz9G66yX5dUDADSohQhuARyACAYIZyQyhDcAhkAJCLYIZyQChD6RHIACA/ghnKiFCG0iGQAUDh8gYzoBR492UQx/StQMDeMy8xMffeeYADeMrCOdu3S506STt2cHIGiXdfAoX55hv7cccO6eKLPW0KkJeR7J+YgIs2bpQuv9zrViAMUCkL4pi+FQjYIcvERFuiB8rDqFHSwYPS99/b4fEXX5Rq1JBSUqThw6U+ffLvM3++dM01UpcuknjKwkEpKbZStm0bJ2eQqJQBxRk9WrrxRjunjIoZyurgQSk5WfrgA2n9ejsxukkTafJk6dgxaenS/PvcdZe90fbq1Tac/epXkv7k9SMBcqWmSp07Sw8/LD34oNetQRghlKF07r7bfuzUiWCGstu6NXd+YnS0tHu3lJ4unThhtzVqlH+f6tXtJOqrrrIVtRUrvGo9kF9qqr0+PvSQNHIkoQylQihD6RHMUF6iouxNwyXp+HGpeXN7n8rBg201rGdPqU2bM/c5+2ypalV7k/HZs+2/57x7CECOH344M5ABpUQoQ3DuvtvOkyCYoSxatrSToDMypMWLpfbtpdhYO49szhzpkksK3ic9Xfrzn6W33rLBDvDaDz/YCu6DDxLIEDQm+gdxTN8qqF+mT5fGjSOYIXiJiVJcnFSnjvTKK9K990oHDthtcXFSgwb595k3zw5j9u8viacsPHZ6IMs7XMnJGTQ/TvQnlAVxTN8qrF8IZvAYT1l4pqhAJnFylgGhLBwRykrm2WelsWPLdIjVktoXsu1BSddK+kOZ/gcgWEYsVAYvzJW0XtKrhWwfJ2l0pL2eVBBCWTgilJXd1KnShAl2Ydg//1kaM6bA3Yrtu4wM5vfAE357ysIhxVz3Ij1IhJIfQ1klrxsBj2UHsmXL7Ndz5tihyGAQyAD4Ddc9lCPOJj+bMUMaP/7MuWArVth3VGZkSE895W37AADwEUKZX2VXyBITz5yc37Ch9PHHduJqVFShQ5mSLbUWppKkSZLGS/qh3BoNFMYUeT5eI2lDxTUGEewqSV9Kyipin0geYkNoEcr86PQhy4LeLdm4sQ1rN91kvy4imBV48cnKsvcsnD1bD/z61/ZYF15YTo0H8rNzygp5IRw1Slq5UlqzRqpcuWIbhsjTvbu9Rs6cKVXKPwOoqD8OgOIwp8xvigtk2bKDWWnnmGUHsh077NcjR9pw9wP1Mnhg1Ch7Hi9ZQiBD+Xj3XXt9Gz7cXu+AckSlzE8KmkNWlMaNz5xjVhxjpPvvl77/3q68fs459nYj1atLHTqwjhkq1hNPSJ98Ym9qft55XrcGkaJGDWnRIql3b2nYMGnWrAIrZkAwOJP84l//kl580VYNmjUr+c9lzzGbO1eDitovK8teoDZvtlWJmjVzt91zj/Tww1JMDBUzVIxRo6SEBBvK6tb1ujWINDVqSB98IKWkUDFDuWKdsiCOGZbS06W9e4ue21XU4969W7UaN9bhgvry9CHLRYvsBaug402cKL36KnPMUO7OONWyhyypkCHUjh+XevaUmjbNmWPmt7W1QslvfcnisUEeM2IF05dZWdJ990mbNtkhy9MrZNwrExUk51R74glbqV26lAoZKsbx43Yo88ILpVmzFKhc2VdBIpT8GMqYU4agBaTCA1lh7rnHfuzUiWCG8kUggxeyhzJ/mWPGnCCUBaEMQXtNyp1Dlj1kWRL33GOHU2NipHXrpHr1QtVE+MRfNEpKSLRzyBiyREXLDmY9e2qmZKd0MPkfQWD4MohjRqxS9mXbQEBrjh0rPJAV14/LltnlMljXB2Vx7JiSav5OVyrJ65YA2iwpet++nGptpA+5hZIfhy8JZUEcM2KVd1/6tR9R4c4LHNSBNt2kdu2kV17xujkVb+hQ+8dR9rsB+/Sx3z96VOrb174TdfJk6dtvpX37pAEDpFtvtftcf72tWKNsXn5ZiovT+Zs3a6ePgkQo+TGUUV8FEPYOqrYUHy+tXi09+qjXzalY331nP06eLM2bd+YfQvHxUufOUmamfWf0lCn2XYL163vT1kj1SyBTYqJ2ed0WhDVCGYDIUNunwaxmTWnbNunECWnrVqlRo9xtb75pq2jbt0s//miraP37S1WqeNfeSHNaIFOTJl63BmGOUAYgcvgxmF1wgb2d2eDB0tNPS998Y7+/apV06aW2KpaZae/Q8frr9s4ekyZ52+ZIQSBDOSOUAYgsfgxmsbHS3LlSr15SdLRdO2vqVPv4jx61gSEjQzp1StqyxQa0bDt22OUcUlM9a35YIpAhBJjoH8QxIxYT/RGmCjzVDh6Uuvlk8v+QIdKBA/bzuDgbtF58MXf7tddKbdrYKtl559kFnLOXDnn8cWnChApvclgrIpD5bXJ6KPmtL3n3ZZDHjFiEMoSpQk81PwUzVIxiKmR+CxKh5Le+5N2XACJb7dp2ceOzz7bzqoCyOn6cIUuEDJWyII4ZsaiUIUxxqsEVfqvuhJLf+pJKGQAAgCMIZQAAAA4glAEAADiAUAYAAOCAKK8bAADBCgQCv3xmcj6P5InAACIblTIAYS07hBHGAIQ7KmUAwk5uhazwbYQ0AOGGUAYgLBUUurK/V1RoAwBXMXwJAADgAEIZAACAAxi+BBCWCpo7xrAlgHBGKAMQdoqaO8YEfwDhiuFLAGEtO5hRJQMQ7qiUAQhbuRUzKmQAwh+VMgAAAAcQygAAABxAKAMAAHAAoQwAAMABhDIAAAAHEMoAAAAcQCgDAABwAKEMAADAAYQyAAAABxDKAAAAHEAoAwAAcAChDAAAwAGEMgAAAAdEed0AeCA9Xdq0ScrIkJo3l+rU8bpFAAD4HqHMb1askJ54Qvrtb6WqVaVt26RLLpFeesnrlgEA4GuEMr+ZPl1avlyqUiX3e3fdJe3aVbbjUn0DAKBMCGV+U7++NGuW1KuXdPbZUnKytGWL1KBB8McsrPoGAABKjFDmNxMmSNOmSQ8+KJ04YataM2dKUWU4FQqrvgEAgBILSDLGGK/bEbxAQCqi/YFAQKc/vrxfB3PMiJGaKh0+LF1+uf062L586CGpVaszq2+jR9sKmh/6EZ7zy1MW7gvqNQcF8ltfBgIBQlkwxwxrQ4dKU6dKH30kTZokNWsmZWVJr7+GeuspAAAQuUlEQVQefF+eOGGrbytX5lbfRoywQ5iR2o9wSiQ/ZRFe/BYkQslvfRkIBBi+9J3Dh+2r17x5NphVqyY9/LC0f3/wx6xWTbrnHul3v2OiPwAAQSKU+dHs2bailZws/frXdmJ+9erBH4+J/gAAlBnDl0EcM6zt2SOtXWs/Vqsmffed1KaNFBsbfF8OGCD9/e/5J/rPnBm5/QinRPJTFuHFb0NuoeS3vgwEAtxmyXfmzpXWrJFq1bIVs2PH7FBmWWQvs7Fzp3TwoLR+vV1mAwAAlBjDl36zfr309tvSH/4gxcfb4cZHHy3b4rETJkjjx9tlNjZulOrWtZWz6OjyazcAABGOUOY30dE2QF1+uRQXJ119tQ1S9esHf8wpU2zF7bbbpJ9+kn7zG+npp8uvzQAA+AChzG+ee0765z+ljz+WDh2Stm+3S2ScPh+stAqrvgEAgBJjon8Qx4xYwfbl009LNWvab559tq2+PfOMtHSpP/sRFc6vT1m4x2+T00PJb33J4rFBHjNiBduXxpxZfbvwQun+++16ZX7sR1Q4vz5l4R6/BYlQ8ltfEsqCPGZYGzNGmjPHBqbTffpp+fdlJPcjnMKpBlf4LUiEkt/6klAW5DHD3i23SB9+mP/7hDKEKU41uMJvQSKU/NaX3GbJr6ZOLd/jFVZ9AwAAJUalLIhjRqyy9GVB1Te/9iMqHKcaXOG36k4o+a0vGb4M8pgRqyx9mZoqXXRRqY4HlBdONbjCb0EilPzWl9xmCeUnbyADAAClQigDAABwAKEMAADAAYQyAAAABxDKAAAAHEAoAwAAcAChDAAAwAGEMgAAAAcQygAAABxAKAMAAHAAoQwAAMABhDIAAAAHEMoAAAAcQCgDAABwAKEMAADAAYQyAAAAB0R53QAg0gQCAa+b4EOGfveAMcbrJgARhVAGhAAvVhUrEKDPKxohGCh/DF8CAAA4gFAGAADgAIYvgRBjmKciMKesIjBEDIQWoQyoALyYhRZzykKP0AuEHsOXAAAADiCUAQAAOIBQBgAA4ABCGQAAgAMIZQAAAA4glAEAADiAUAYAAOAAQhkAAIADCGUAAAAOIJQBAAA4gFAGAADgAEIZAACAAwhlAAAADiCUAQAAOIBQBgAA4ABCGQAAgAMIZQAAAA4glAEAADiAUAYAAOAAQhkAAIADCGUAAAAOIJQBAAA4gFAGAADgAEIZQuPLL71uAQCUvz/8gesbQoZQhvL35ZdS9+5etwIAyl/fvvb6RjBDCBDKUL6+/FLq0UN67TWvWwIA5e/WW6WZM6Wbb5Y2bPC6NYgwhDKUn+xANmWKvXABQCS65RZp1iypZ0+CGcoVoQzlI3vIkkAGwA9uuUWaOlXq1Sv4ocxTp6RRo6R9+8q3beFgyxbpuee8boVzorxuACLAV1/lDlkSyAD4xa23SlWr2qHMRYuka64p+c9mZkqDB0sHD0rnnBO6NrqqQQPpww+lAwekv/7V69Y4g0oZyuarr6iQAfCvYIYyMzPtuzgPHpQWLJCqVQttG1107rlSQoK0Zo30yCNet8YZAUnGGON1O4IXCEhFtD8QCOj0x5f362COGbFK2Ze/DQT0ZePGhQcyn/ZjUOccysSnp1qF4rwuxocfSsOG6dq0NH1WVD9lZkqDBkmHDvk3kJ3u0CGpa1epbdt8FTO/nXOBQIBQFswxI1Zp+nLvXu1v0EB1K6hpABAO9kuqu2ePVL++pDzXzVOnpDvusB/feccOfcJWDLt2ldq3l155JefbhLJwRCgrP6Xsyz8GAnopOlpatkw6//xSHy9S+e1CUmajRtmL8vffSzNmSC++KNWoIaWkSMOHS336SJMnS99+aydE3367fUFr0EDaulUaMkSBfv/lx1OtQnFeFyMtTerUSU9t2qT/KaifqJAV7dAhqVs36YYbcipmfjvnAoEAc8oQvJcl6e67pU6dpJ07vW4OwtHBg1Jysg1j48ZJI0bY70+eLM2bZ0N9ZqadRD1lil0fas8eqVYtadIk6b33pFWrvH0MwC+BTAMG6IWCthPIinfuuVJ8vLR2ra/nmBHKUDaPPUYwQ/C2bpWaNrWfR0dLu3dL27ZJJ07YbY0aSdu3Sz/+aKtm/ftLLVvat9PPmiUdPSpNnOjpQ4DPnRbI9OST+TZXkaR+/aTDhwlkxSGY+W9JjNqStHKl1KFDcAdITrYfW7QoryZVjLQ0accO6brrgvv5r77SRXm+1VGSjhyxwSwjQ+rc2Q5lNmlSsmMuWmSX0qjE3wa+FRVl59dI0vHjUvPmds7N4MHSzz/bd7R16CA1biy9/rr0ww/SmDF26DJ7eHzfPkn1PH0Y8Kldu2wgGzJEGj26wF0WSDaMSVL16hXWtLC3fr1med0GD/ju1bCZZP9qWbKk9D+cnCx16SJ98UV5Nyv0vvtO6t1bWr269D/75ZfSzTerdZ5vx0p2fZ4jR+wFacgQe4Hatav4Y44bZ+cSHThQ+vYgcrRsKW3caEP94sV2om9srDR3rl2UMzpaatbMbj91ylbIGje2888GDZK+/ppKGbxRgkAmSa9LtuKblGT/iAj1v5077XMl++t9+2xF+fR99uyx196KaE8w/z76SGrQQHEV9st0iwlrxbQ/7+OTZMyGDcY0amTMBx+U/JibNxtz4YXGzJkTbEu9t2KFMQ0aGJOYWPD2gh53UpIxjRsb8957+foyIBkzYoQxN9xgzKFD9psvvWRMdLQxP/5Y+O/mL3+x++zcGfxjcViB5xwKt2yZMbffbsz99xuTnm7MnXca06eP/ZeWZvdJSDCmXz9j7r7bmJ9+Mubtt42JjTVm2DBj9u8v7jKAcsB5fZrdu4259FJj/ud/8m0qsJ8WLTKmYUNjPvsstO364x+NGT7cmI4djdmyxZghQ4x54AFjevY0ZuFCu8+rrxpz773G/Nd/GfPee6FtTzCWLLF9tXat7845ScafocwYY9autQHlo4+KP2ZysjEXXBDegSxbQoJ93J9+mn9b3sedlGTD6y9P3AL7MivLmPvuM6ZtW2MOH7Ybxo0zpkWLgn83f/6zMS1bGrNrV3k8Gif57ULiAro49Divf7Fzp72+jRtX4OZC++ndd+31NCkpNO06cMCYXr3s5+vWGdOtmw1lxhhz9KgxCxYYk5Fhv5+ZaczBg8asWhWatgTro4/s69PatcYY/51zkoz7w5fffFOmH7+8sA3XXy8tXGjnrsTHF36AzZvtXKnnn7f7hruYGDs01Ldv0UOZ2feyLO7WSYGAfVfcFVfY/U8fysxr3Djp73+3884aNy77YwGAitavX7FDlgXq29deK7t3D/5emUUJ5k0zVaqUfzuCtWSJfY19/337+uxjXofDwp04YUvEL75Y+D5Ftf+RR8yn2dWcnN3z7L9mjU3mS5bkP2Z2hWz27NK33XUFVcyyH3eeClnu5iL+asmumLVrl1sxO327Dypk2YrsJ4QEXRx6nNe/2LOnyM3F9lOoKmZffmmHJY2x00d+/3tj5s83pn9/Y3r3NiYuzpjvvjOmSxe7T2qqMQMGlG8bgpWnQpbNb+ecwmL4Mi3NmMsuM+b55wveXlj7x4wx5qqrTJ2S/FI3bLBj2P/6V+4xI2EOWXESEoypV8+Y5cvt15J9Yv8yhyyvYp8gWVl2jlnbtnaOWfb2CJ9DlpffLiQuoItDj/O6ZErUT6GYY5aebkz79sacOmUD2F//aocrT50yZsYMe50/edLONzt50phPPjHmscfK7/8PVnx8zhyyvPx2zoVHKDPGVldatiy4YlZQ+x95xJhrrzXmwIGS/1JPr5hJNpBFYoUsr+yK2erV9nE3amT/kitAifry9IqZZCtkLVr4okKWzW8XEhfQxaHHeV0yJe6nUFTMgnnTjJcKqZBl89s5J8mEz22W/vMf+/bj//5v6U9/yv1+3lv5PPqo9Omn9u7ztWuX7jYNa9fat+Pv2WPXRCpoXlQkWrrULi+wZ4/07rt27kMBStyXxkgPPCBNnWrXc0tM9NUcMr/dGsQFPr2jV4XivC6ZUvXTe+/Za+Xnn5d8fcdI8cUXdn5dEXPI/HbOhd+9L7OD2eDBdgFJ6cyr8WOP2Vuu/BLI7Ob8v9Si3CBpoKQRIWi+l56V9EwZjzFW0jMl7MuApCmSnpf0nzL+v+GoNOccyoORPesQSpzXJVOafrpc0sYQt8dFUZIukfTvYvYjlLkuLc2+G/L226WnnsoNZX/6k30X5ccfS3Xq5Owe6b9EAFTKAD+I9NfzQCAQhrdZatjQDrd16mRv0SLZCtnKlXaphV8qZAAAAOEk/Cpl2f7zH+mmm+ytj665xga1AgJZscn65EmpatUQNhRAqFEpAyJAMa/HVMpc8Oyz0tixRe+zYYN03nkFblqqwsf0L5H0kaQbJe0sQxMBeM0wxwkIY+dLWiGpu6QthexTyuV6w1L4VspKqrA/obdssUOgTz4p3XtvxbcLQLmhUgZEgNmz7Vzxjz+WWrXKvz3Cn+jhUSkLBQIZAABuyV6GqkuXwoNZhPNfKCOQAQDgJp8HM3+FMgIZAABu83Ew808oI5ABABAefBrM/BHKCGQAAISXvMHMB/wRyjp3tstqDB3qdUsAAEBJDRli33HZrZvXLakQ/lgSAwAAhL8Iziv+WRKjRQubtkf7Yek5IMyMGiUdPCh9/700Y4b04otSjRpSSoo0fLjUp8+Z+8TFSU8/LTVpIm3cKMXFKXBx00i+VgP+Nn68XcMsOdnrloScP0LZihV2TllGhp1XBsANBw/aC+0HH0jr10sjRtiwNXmydOyYvX1a3n2GDpWuukp65RVpzRppyhRJf/H6kQAIhZdfll5/XUpMlM4/3+vWhJw/QlnDhvZm5Z062a8JZoAbtm6Vmja1n0dHS7t3S+np0okTdlujRvn32bdP+uYb+0dWUpKUmupV6wGE0ssv28p4YqL9Y80H/BHKJIIZ4KKoKOnUKfv58eNS8+bSHXdIgwdLP/8s9ewptWlz5j6XXSb9/vd2n8svl84917v2AwgNHwYySarkdQMqVHYwe/NN6YUXvG4NgJYt7bywjAxp8WKpfXspNlaaO1fq1ctWxvLuc8UVtkL2xhtSlSr27fIAIodPA5nkl3df5n18aWm2YjZgABUzwGuJifYCXKeOnSd2773SgQN2W1yc1KBB/n1ee03asEFq1kx67jkFKgWY6A9EgqICmQ9uSO7PUCYRzIAIEuHXasAfiquQRfgTPRAI+GD4srBlMBo2tO/sWrBA2rmzYtsEAABy7dwpvfVW0UOWPljWKvIrZcUxhgVmgTAX4X9AA/7g89djf1TKiuPjEwAAAGfwekwoAwAAcAGhDAAAwAGEMgAAAAcQygAAABxAKAMAAHAAoQwAAMABhDIAAAAHEMoAAAAcQCgDAABwAKEMAADAAYQyAAAABxDKAAAAHEAoAwAAcAChDAAAwAGEMgAAAAcQygAAABxAKAMAAHAAoQwAAMABhDIAAAAHEMoAAAAcQCgDAABwAKEMAADAAYQyAAAABxDKAAAAHEAoAwAAcAChDAAAwAGEMgAAAAcQygAAABxQ6S5JOn7c63YAAAD4WqX7JCk93et2AAAA+FqgrmT2GeN1OwAgaIGAxGUMQDgLBAIKSDKGqxmAMEYoAxDuAoEAE/0BAABcQCgDAABwAKEMAADAAYQyAAAAB0QtlZ1cVphfSdoriZXMALjLFHkdAwAv1ZBUX1JKEfuMlvT/ASWrl6vAwnWIAAAAAElFTkSuQmCC;" vertex="1" parent="1">
          <mxGeometry x="174.99999999999997" y="140" width="227.83" height="320" as="geometry" />
        </mxCell>
        <mxCell id="j2erakiJq77h1J_ViaSF-5" value="" style="rounded=0;whiteSpace=wrap;html=1;fillColor=#009900;strokeColor=#000000;opacity=40;strokeWidth=2;" vertex="1" parent="1">
          <mxGeometry x="176.42" y="140" width="225" height="320" as="geometry" />
        </mxCell>
        <mxCell id="j2erakiJq77h1J_ViaSF-6" value="" style="rounded=0;whiteSpace=wrap;html=1;fillColor=#009900;strokeColor=#000000;opacity=20;strokeWidth=3;" vertex="1" parent="1">
          <mxGeometry x="196.42" y="160" width="185" height="280" as="geometry" />
        </mxCell>
        <mxCell id="j2erakiJq77h1J_ViaSF-9" value="" style="rounded=0;whiteSpace=wrap;html=1;strokeWidth=1;" vertex="1" parent="1">
          <mxGeometry x="100" y="140" width="60" height="320" as="geometry" />
        </mxCell>
        <mxCell id="j2erakiJq77h1J_ViaSF-10" value="" style="endArrow=none;html=1;rounded=0;entryX=0.5;entryY=0;entryDx=0;entryDy=0;" edge="1" parent="1" target="j2erakiJq77h1J_ViaSF-9">
          <mxGeometry width="50" height="50" relative="1" as="geometry">
            <mxPoint x="130" y="300" as="sourcePoint" />
            <mxPoint x="130" y="145" as="targetPoint" />
          </mxGeometry>
        </mxCell>
        <mxCell id="j2erakiJq77h1J_ViaSF-12" value="" style="endArrow=none;html=1;rounded=0;entryX=1;entryY=0.5;entryDx=0;entryDy=0;" edge="1" parent="1" target="j2erakiJq77h1J_ViaSF-9">
          <mxGeometry width="50" height="50" relative="1" as="geometry">
            <mxPoint x="100" y="300" as="sourcePoint" />
            <mxPoint x="150" y="250" as="targetPoint" />
          </mxGeometry>
        </mxCell>
        <mxCell id="j2erakiJq77h1J_ViaSF-14" value="&lt;font style=&quot;font-size: 6px;&quot;&gt;Time left&lt;br style=&quot;font-size: 6px;&quot;&gt;&lt;/font&gt;" style="rounded=0;whiteSpace=wrap;html=1;fontSize=6;" vertex="1" parent="1">
          <mxGeometry x="100" y="300" width="60" height="20" as="geometry" />
        </mxCell>
        <mxCell id="j2erakiJq77h1J_ViaSF-15" value="&lt;font style=&quot;font-size: 6px;&quot;&gt;Score&lt;/font&gt;" style="rounded=0;whiteSpace=wrap;html=1;fontSize=6;" vertex="1" parent="1">
          <mxGeometry x="100" y="320" width="60" height="20" as="geometry" />
        </mxCell>
        <mxCell id="j2erakiJq77h1J_ViaSF-16" value="&lt;font style=&quot;font-size: 6px;&quot;&gt;Packets Left&lt;br style=&quot;font-size: 6px;&quot;&gt;&lt;/font&gt;" style="rounded=0;whiteSpace=wrap;html=1;fontSize=6;" vertex="1" parent="1">
          <mxGeometry x="100" y="340" width="60" height="20" as="geometry" />
        </mxCell>
        <mxCell id="j2erakiJq77h1J_ViaSF-17" value="" style="rounded=0;whiteSpace=wrap;html=1;" vertex="1" parent="1">
          <mxGeometry x="100" y="360" width="60" height="20" as="geometry" />
        </mxCell>
        <mxCell id="j2erakiJq77h1J_ViaSF-18" value="" style="rounded=0;whiteSpace=wrap;html=1;" vertex="1" parent="1">
          <mxGeometry x="100" y="380" width="60" height="20" as="geometry" />
        </mxCell>
        <mxCell id="j2erakiJq77h1J_ViaSF-19" value="" style="rounded=0;whiteSpace=wrap;html=1;" vertex="1" parent="1">
          <mxGeometry x="100" y="400" width="60" height="20" as="geometry" />
        </mxCell>
        <mxCell id="j2erakiJq77h1J_ViaSF-20" value="" style="rounded=0;whiteSpace=wrap;html=1;" vertex="1" parent="1">
          <mxGeometry x="100" y="420" width="60" height="20" as="geometry" />
        </mxCell>
        <mxCell id="j2erakiJq77h1J_ViaSF-21" value="&lt;font style=&quot;font-size: 6px;&quot;&gt;&lt;b&gt;Controlled Robot&lt;/b&gt;&lt;br&gt;Ball model, Obstacle Model, Connection satus&lt;br&gt;&lt;/font&gt;" style="rounded=0;whiteSpace=wrap;html=1;rotation=-90;" vertex="1" parent="1">
          <mxGeometry x="35" y="205" width="160" height="30" as="geometry" />
        </mxCell>
        <mxCell id="j2erakiJq77h1J_ViaSF-22" value="&lt;font style=&quot;font-size: 6px;&quot;&gt;&lt;b&gt;Automonous&lt;/b&gt; &lt;b&gt;Robot&lt;/b&gt;&lt;br&gt;Ball model, Obstacle Model, Connection satus&lt;br&gt;&lt;/font&gt;" style="rounded=0;whiteSpace=wrap;html=1;rotation=-90;" vertex="1" parent="1">
          <mxGeometry x="65" y="205" width="160" height="30" as="geometry" />
        </mxCell>
        <mxCell id="j2erakiJq77h1J_ViaSF-24" value="" style="endArrow=none;html=1;rounded=0;strokeWidth=1;" edge="1" parent="1">
          <mxGeometry width="50" height="50" relative="1" as="geometry">
            <mxPoint x="415" y="480" as="sourcePoint" />
            <mxPoint x="415" y="120" as="targetPoint" />
          </mxGeometry>
        </mxCell>
        <mxCell id="j2erakiJq77h1J_ViaSF-25" value="&lt;font style=&quot;font-size: 6px;&quot;&gt;Dribble&lt;/font&gt;" style="rounded=0;whiteSpace=wrap;html=1;fontSize=6;" vertex="1" parent="1">
          <mxGeometry x="430" y="140" width="40" height="20" as="geometry" />
        </mxCell>
        <mxCell id="j2erakiJq77h1J_ViaSF-27" value="&lt;font style=&quot;font-size: 6px;&quot;&gt;Kick&lt;/font&gt;" style="rounded=0;whiteSpace=wrap;html=1;fontSize=6;" vertex="1" parent="1">
          <mxGeometry x="430" y="170" width="40" height="20" as="geometry" />
        </mxCell>
        <mxCell id="j2erakiJq77h1J_ViaSF-28" value="&lt;font style=&quot;font-size: 6px;&quot;&gt;Go to&lt;/font&gt;" style="rounded=0;whiteSpace=wrap;html=1;fontSize=6;" vertex="1" parent="1">
          <mxGeometry x="430" y="200" width="40" height="20" as="geometry" />
        </mxCell>
        <mxCell id="j2erakiJq77h1J_ViaSF-29" value="&lt;font style=&quot;font-size: 6px;&quot;&gt;Look&lt;/font&gt;" style="rounded=0;whiteSpace=wrap;html=1;fontSize=6;" vertex="1" parent="1">
          <mxGeometry x="430" y="230" width="40" height="20" as="geometry" />
        </mxCell>
        <mxCell id="j2erakiJq77h1J_ViaSF-30" value="&lt;font style=&quot;font-size: 6px;&quot;&gt;Turn&lt;/font&gt;" style="rounded=0;whiteSpace=wrap;html=1;fontSize=6;" vertex="1" parent="1">
          <mxGeometry x="430" y="260" width="40" height="20" as="geometry" />
        </mxCell>
        <mxCell id="j2erakiJq77h1J_ViaSF-33" value="&lt;p style=&quot;line-height: 50%;&quot;&gt;&lt;font style=&quot;font-size: 6px;&quot;&gt;Go to ball and dribble&lt;br&gt;&lt;/font&gt;&lt;/p&gt;" style="rounded=0;whiteSpace=wrap;html=1;" vertex="1" parent="1">
          <mxGeometry x="480" y="140" width="40" height="20" as="geometry" />
        </mxCell>
        <mxCell id="j2erakiJq77h1J_ViaSF-34" value="&lt;font style=&quot;font-size: 6px;&quot;&gt;Pass the ball&lt;br&gt;&lt;/font&gt;" style="rounded=0;whiteSpace=wrap;html=1;" vertex="1" parent="1">
          <mxGeometry x="480" y="170" width="40" height="20" as="geometry" />
        </mxCell>
        <mxCell id="j2erakiJq77h1J_ViaSF-36" value="&lt;p style=&quot;line-height: 50%;&quot;&gt;&lt;font style=&quot;font-size: 6px;&quot;&gt;Ask for the ball&lt;br&gt;&lt;/font&gt;&lt;/p&gt;" style="rounded=0;whiteSpace=wrap;html=1;" vertex="1" parent="1">
          <mxGeometry x="480" y="200" width="40" height="20" as="geometry" />
        </mxCell>
        <mxCell id="j2erakiJq77h1J_ViaSF-37" value="&lt;font style=&quot;font-size: 6px;&quot;&gt;Spazza&lt;/font&gt;" style="rounded=0;whiteSpace=wrap;html=1;" vertex="1" parent="1">
          <mxGeometry x="480" y="230" width="40" height="20" as="geometry" />
        </mxCell>
        <mxCell id="j2erakiJq77h1J_ViaSF-38" value="&lt;p style=&quot;line-height: 130%; font-size: 6px;&quot;&gt;&lt;font style=&quot;font-size: 6px;&quot;&gt;Search the ball&lt;br&gt;&lt;/font&gt;&lt;/p&gt;" style="rounded=0;whiteSpace=wrap;html=1;" vertex="1" parent="1">
          <mxGeometry x="480" y="260" width="40" height="20" as="geometry" />
        </mxCell>
        <mxCell id="j2erakiJq77h1J_ViaSF-40" value="" style="endArrow=none;dashed=1;html=1;rounded=0;entryX=1;entryY=0.5;entryDx=0;entryDy=0;strokeWidth=1;opacity=20;" edge="1" parent="1" target="j2erakiJq77h1J_ViaSF-39">
          <mxGeometry width="50" height="50" relative="1" as="geometry">
            <mxPoint x="470" y="300" as="sourcePoint" />
            <mxPoint x="720" y="300" as="targetPoint" />
          </mxGeometry>
        </mxCell>
        <mxCell id="j2erakiJq77h1J_ViaSF-39" value="&lt;font style=&quot;font-size: 6px;&quot;&gt;Stop&lt;br style=&quot;font-size: 6px;&quot;&gt;&lt;/font&gt;" style="rounded=0;whiteSpace=wrap;html=1;fontSize=6;" vertex="1" parent="1">
          <mxGeometry x="430" y="290" width="90" height="15" as="geometry" />
        </mxCell>
        <mxCell id="j2erakiJq77h1J_ViaSF-41" value="Look left" style="rounded=0;whiteSpace=wrap;html=1;fontSize=6;" vertex="1" parent="1">
          <mxGeometry x="430" y="315" width="45" height="20" as="geometry" />
        </mxCell>
        <mxCell id="j2erakiJq77h1J_ViaSF-46" value="" style="endArrow=none;html=1;rounded=0;strokeWidth=1;" edge="1" parent="1">
          <mxGeometry width="50" height="50" relative="1" as="geometry">
            <mxPoint x="535" y="480" as="sourcePoint" />
            <mxPoint x="535" y="120" as="targetPoint" />
          </mxGeometry>
        </mxCell>
        <mxCell id="j2erakiJq77h1J_ViaSF-48" value="" style="endArrow=none;html=1;rounded=0;" edge="1" parent="1">
          <mxGeometry width="50" height="50" relative="1" as="geometry">
            <mxPoint x="415" y="360" as="sourcePoint" />
            <mxPoint x="535" y="360" as="targetPoint" />
          </mxGeometry>
        </mxCell>
        <mxCell id="j2erakiJq77h1J_ViaSF-49" value="Scan" style="rounded=0;whiteSpace=wrap;html=1;fontSize=6;" vertex="1" parent="1">
          <mxGeometry x="430" y="335" width="90" height="15" as="geometry" />
        </mxCell>
        <mxCell id="j2erakiJq77h1J_ViaSF-50" value="Look right" style="rounded=0;whiteSpace=wrap;html=1;fontSize=6;" vertex="1" parent="1">
          <mxGeometry x="475" y="315" width="45" height="20" as="geometry" />
        </mxCell>
        <mxCell id="j2erakiJq77h1J_ViaSF-51" value="&lt;font style=&quot;font-size: 6px;&quot;&gt;Strategy 1&lt;br style=&quot;font-size: 6px;&quot;&gt;&lt;/font&gt;" style="rounded=0;whiteSpace=wrap;html=1;fontSize=6;" vertex="1" parent="1">
          <mxGeometry x="430" y="370" width="90" height="15" as="geometry" />
        </mxCell>
        <mxCell id="j2erakiJq77h1J_ViaSF-52" value="&lt;font style=&quot;font-size: 6px;&quot;&gt;Strategy 2&lt;br&gt;&lt;/font&gt;" style="rounded=0;whiteSpace=wrap;html=1;fontSize=6;" vertex="1" parent="1">
          <mxGeometry x="430" y="395" width="90" height="15" as="geometry" />
        </mxCell>
        <mxCell id="j2erakiJq77h1J_ViaSF-53" value="&lt;font style=&quot;font-size: 6px;&quot;&gt;Strategy 3&lt;br&gt;&lt;/font&gt;" style="rounded=0;whiteSpace=wrap;html=1;fontSize=6;" vertex="1" parent="1">
          <mxGeometry x="430" y="420" width="90" height="15" as="geometry" />
        </mxCell>
        <mxCell id="j2erakiJq77h1J_ViaSF-54" value="&lt;font style=&quot;font-size: 6px;&quot;&gt;Strategy 4&lt;br&gt;&lt;/font&gt;" style="rounded=0;whiteSpace=wrap;html=1;fontSize=6;" vertex="1" parent="1">
          <mxGeometry x="430" y="445" width="90" height="15" as="geometry" />
        </mxCell>
        <mxCell id="j2erakiJq77h1J_ViaSF-57" value="" style="rounded=0;whiteSpace=wrap;html=1;" vertex="1" parent="1">
          <mxGeometry x="550" y="155" width="150" height="15" as="geometry" />
        </mxCell>
        <mxCell id="j2erakiJq77h1J_ViaSF-58" value="&lt;span style=&quot;font-size: 8px;&quot;&gt;&lt;font style=&quot;font-size: 8px;&quot;&gt;History&lt;/font&gt;&lt;/span&gt; of actions" style="rounded=0;whiteSpace=wrap;html=1;fontSize=8;fontStyle=1" vertex="1" parent="1">
          <mxGeometry x="550" y="140" width="150" height="15" as="geometry" />
        </mxCell>
        <mxCell id="j2erakiJq77h1J_ViaSF-59" value="&lt;font style=&quot;font-size: 6px;&quot;&gt;i&lt;/font&gt;dx" style="rounded=0;whiteSpace=wrap;html=1;fontSize=6;" vertex="1" parent="1">
          <mxGeometry x="550" y="155" width="15" height="15" as="geometry" />
        </mxCell>
        <mxCell id="j2erakiJq77h1J_ViaSF-60" value="name " style="rounded=0;whiteSpace=wrap;html=1;fontSize=6;" vertex="1" parent="1">
          <mxGeometry x="565" y="155" width="90" height="15" as="geometry" />
        </mxCell>
        <mxCell id="j2erakiJq77h1J_ViaSF-61" value="undo" style="rounded=0;whiteSpace=wrap;html=1;fontSize=6;" vertex="1" parent="1">
          <mxGeometry x="680" y="155" width="20" height="15" as="geometry" />
        </mxCell>
        <mxCell id="j2erakiJq77h1J_ViaSF-62" value="&lt;span style=&quot;font-size: 8px;&quot;&gt;&lt;font style=&quot;font-size: 8px;&quot;&gt;History&lt;/font&gt;&lt;/span&gt; of strategies" style="rounded=0;whiteSpace=wrap;html=1;fontSize=8;fontStyle=1" vertex="1" parent="1">
          <mxGeometry x="550" y="310" width="150" height="15" as="geometry" />
        </mxCell>
        <mxCell id="j2erakiJq77h1J_ViaSF-63" value="&lt;font style=&quot;font-size: 6px;&quot;&gt;i&lt;/font&gt;dx" style="rounded=0;whiteSpace=wrap;html=1;fontSize=6;" vertex="1" parent="1">
          <mxGeometry x="550" y="170" width="15" height="15" as="geometry" />
        </mxCell>
        <mxCell id="j2erakiJq77h1J_ViaSF-64" value="name " style="rounded=0;whiteSpace=wrap;html=1;fontSize=6;" vertex="1" parent="1">
          <mxGeometry x="565" y="170" width="90" height="15" as="geometry" />
        </mxCell>
        <mxCell id="j2erakiJq77h1J_ViaSF-65" value="undo" style="rounded=0;whiteSpace=wrap;html=1;fontSize=6;" vertex="1" parent="1">
          <mxGeometry x="680" y="170" width="20" height="15" as="geometry" />
        </mxCell>
        <mxCell id="j2erakiJq77h1J_ViaSF-66" value="&lt;font style=&quot;font-size: 6px;&quot;&gt;i&lt;/font&gt;dx" style="rounded=0;whiteSpace=wrap;html=1;fontSize=6;" vertex="1" parent="1">
          <mxGeometry x="550" y="185" width="15" height="15" as="geometry" />
        </mxCell>
        <mxCell id="j2erakiJq77h1J_ViaSF-67" value="name " style="rounded=0;whiteSpace=wrap;html=1;fontSize=6;" vertex="1" parent="1">
          <mxGeometry x="565" y="185" width="90" height="15" as="geometry" />
        </mxCell>
        <mxCell id="j2erakiJq77h1J_ViaSF-68" value="undo" style="rounded=0;whiteSpace=wrap;html=1;fontSize=6;" vertex="1" parent="1">
          <mxGeometry x="680" y="185" width="20" height="15" as="geometry" />
        </mxCell>
        <mxCell id="j2erakiJq77h1J_ViaSF-69" value="&lt;font style=&quot;font-size: 6px;&quot;&gt;i&lt;/font&gt;dx" style="rounded=0;whiteSpace=wrap;html=1;fontSize=6;" vertex="1" parent="1">
          <mxGeometry x="550" y="325" width="15" height="15" as="geometry" />
        </mxCell>
        <mxCell id="j2erakiJq77h1J_ViaSF-70" value="name " style="rounded=0;whiteSpace=wrap;html=1;fontSize=6;" vertex="1" parent="1">
          <mxGeometry x="565" y="325" width="90" height="15" as="geometry" />
        </mxCell>
        <mxCell id="j2erakiJq77h1J_ViaSF-71" value="undo" style="rounded=0;whiteSpace=wrap;html=1;fontSize=6;" vertex="1" parent="1">
          <mxGeometry x="680" y="325" width="20" height="15" as="geometry" />
        </mxCell>
        <mxCell id="j2erakiJq77h1J_ViaSF-72" value="&lt;font style=&quot;font-size: 6px;&quot;&gt;i&lt;/font&gt;dx" style="rounded=0;whiteSpace=wrap;html=1;fontSize=6;" vertex="1" parent="1">
          <mxGeometry x="550" y="340" width="15" height="15" as="geometry" />
        </mxCell>
        <mxCell id="j2erakiJq77h1J_ViaSF-73" value="name " style="rounded=0;whiteSpace=wrap;html=1;fontSize=6;" vertex="1" parent="1">
          <mxGeometry x="565" y="340" width="90" height="15" as="geometry" />
        </mxCell>
        <mxCell id="j2erakiJq77h1J_ViaSF-74" value="undo" style="rounded=0;whiteSpace=wrap;html=1;fontSize=6;" vertex="1" parent="1">
          <mxGeometry x="680" y="340" width="20" height="15" as="geometry" />
        </mxCell>
        <mxCell id="j2erakiJq77h1J_ViaSF-75" value="&lt;font style=&quot;font-size: 6px;&quot;&gt;i&lt;/font&gt;dx" style="rounded=0;whiteSpace=wrap;html=1;fontSize=6;" vertex="1" parent="1">
          <mxGeometry x="550" y="355" width="15" height="15" as="geometry" />
        </mxCell>
        <mxCell id="j2erakiJq77h1J_ViaSF-76" value="name " style="rounded=0;whiteSpace=wrap;html=1;fontSize=6;" vertex="1" parent="1">
          <mxGeometry x="565" y="355" width="90" height="15" as="geometry" />
        </mxCell>
        <mxCell id="j2erakiJq77h1J_ViaSF-77" value="undo" style="rounded=0;whiteSpace=wrap;html=1;fontSize=6;" vertex="1" parent="1">
          <mxGeometry x="680" y="355" width="20" height="15" as="geometry" />
        </mxCell>
        <mxCell id="j2erakiJq77h1J_ViaSF-78" value="..." style="rounded=0;whiteSpace=wrap;html=1;" vertex="1" parent="1">
          <mxGeometry x="550" y="200" width="150" height="15" as="geometry" />
        </mxCell>
        <mxCell id="j2erakiJq77h1J_ViaSF-79" value="..." style="rounded=0;whiteSpace=wrap;html=1;" vertex="1" parent="1">
          <mxGeometry x="550" y="215" width="150" height="15" as="geometry" />
        </mxCell>
        <mxCell id="j2erakiJq77h1J_ViaSF-80" value="..." style="rounded=0;whiteSpace=wrap;html=1;" vertex="1" parent="1">
          <mxGeometry x="550" y="230" width="150" height="15" as="geometry" />
        </mxCell>
        <mxCell id="j2erakiJq77h1J_ViaSF-81" value="..." style="rounded=0;whiteSpace=wrap;html=1;" vertex="1" parent="1">
          <mxGeometry x="550" y="245" width="150" height="15" as="geometry" />
        </mxCell>
        <mxCell id="j2erakiJq77h1J_ViaSF-82" value="..." style="rounded=0;whiteSpace=wrap;html=1;" vertex="1" parent="1">
          <mxGeometry x="550" y="260" width="150" height="15" as="geometry" />
        </mxCell>
        <mxCell id="j2erakiJq77h1J_ViaSF-83" value="..." style="rounded=0;whiteSpace=wrap;html=1;" vertex="1" parent="1">
          <mxGeometry x="550" y="275" width="150" height="15" as="geometry" />
        </mxCell>
        <mxCell id="j2erakiJq77h1J_ViaSF-84" value="..." style="rounded=0;whiteSpace=wrap;html=1;" vertex="1" parent="1">
          <mxGeometry x="550" y="370" width="150" height="15" as="geometry" />
        </mxCell>
        <mxCell id="j2erakiJq77h1J_ViaSF-85" value="..." style="rounded=0;whiteSpace=wrap;html=1;" vertex="1" parent="1">
          <mxGeometry x="550" y="385" width="150" height="15" as="geometry" />
        </mxCell>
        <mxCell id="j2erakiJq77h1J_ViaSF-86" value="..." style="rounded=0;whiteSpace=wrap;html=1;" vertex="1" parent="1">
          <mxGeometry x="550" y="400" width="150" height="15" as="geometry" />
        </mxCell>
        <mxCell id="j2erakiJq77h1J_ViaSF-87" value="..." style="rounded=0;whiteSpace=wrap;html=1;" vertex="1" parent="1">
          <mxGeometry x="550" y="415" width="150" height="15" as="geometry" />
        </mxCell>
        <mxCell id="j2erakiJq77h1J_ViaSF-88" value="..." style="rounded=0;whiteSpace=wrap;html=1;" vertex="1" parent="1">
          <mxGeometry x="550" y="430" width="150" height="15" as="geometry" />
        </mxCell>
        <mxCell id="j2erakiJq77h1J_ViaSF-89" value="..." style="rounded=0;whiteSpace=wrap;html=1;" vertex="1" parent="1">
          <mxGeometry x="550" y="445" width="150" height="15" as="geometry" />
        </mxCell>
        <mxCell id="j2erakiJq77h1J_ViaSF-90" value="" style="endArrow=none;html=1;rounded=0;entryX=1;entryY=0.5;entryDx=0;entryDy=0;" edge="1" parent="1" target="j2erakiJq77h1J_ViaSF-1">
          <mxGeometry width="50" height="50" relative="1" as="geometry">
            <mxPoint x="535" y="300" as="sourcePoint" />
            <mxPoint x="655" y="300" as="targetPoint" />
          </mxGeometry>
        </mxCell>
        <mxCell id="j2erakiJq77h1J_ViaSF-91" value="terminate" style="rounded=0;whiteSpace=wrap;html=1;fontSize=6;" vertex="1" parent="1">
          <mxGeometry x="650" y="155" width="30" height="15" as="geometry" />
        </mxCell>
        <mxCell id="j2erakiJq77h1J_ViaSF-92" value="terminate" style="rounded=0;whiteSpace=wrap;html=1;fontSize=6;" vertex="1" parent="1">
          <mxGeometry x="650" y="170" width="30" height="15" as="geometry" />
        </mxCell>
        <mxCell id="j2erakiJq77h1J_ViaSF-93" value="terminate" style="rounded=0;whiteSpace=wrap;html=1;fontSize=6;" vertex="1" parent="1">
          <mxGeometry x="650" y="185" width="30" height="15" as="geometry" />
        </mxCell>
        <mxCell id="j2erakiJq77h1J_ViaSF-94" value="terminate" style="rounded=0;whiteSpace=wrap;html=1;fontSize=6;" vertex="1" parent="1">
          <mxGeometry x="650" y="325" width="30" height="15" as="geometry" />
        </mxCell>
        <mxCell id="j2erakiJq77h1J_ViaSF-95" value="terminate" style="rounded=0;whiteSpace=wrap;html=1;fontSize=6;" vertex="1" parent="1">
          <mxGeometry x="650" y="340" width="30" height="15" as="geometry" />
        </mxCell>
        <mxCell id="j2erakiJq77h1J_ViaSF-96" value="terminate" style="rounded=0;whiteSpace=wrap;html=1;fontSize=6;" vertex="1" parent="1">
          <mxGeometry x="650" y="355" width="30" height="15" as="geometry" />
        </mxCell>
      </root>
    </mxGraphModel>
  </diagram>
</mxfile>
